<svg id="Calque_1" data-name="Calque 1" xmlns="http://www.w3.org/2000/svg" viewBox="0 0 812.36 234.82"><defs><style>.cls-1,.cls-8,.cls-9{fill:#fff;}.cls-10,.cls-2,.cls-6{fill:none;}.cls-3{fill:#7f0506;}.cls-3,.cls-6,.cls-8{stroke:#135781;}.cls-10,.cls-3,.cls-6,.cls-8,.cls-9{stroke-miterlimit:10;}.cls-3,.cls-6{stroke-width:2px;}.cls-4{fill:#ac967f;}.cls-5{fill:#135781;}.cls-7{fill:#0f8793;}.cls-8,.cls-9{stroke-width:1.5px;}.cls-10,.cls-9{stroke:#fff;}.cls-10{stroke-width:3px;}</style></defs><title>OECDAI-logo-white</title><path class="cls-1" d="M275.92,223.47h4.31l3.5-39.32h-5.48l.41-4.32h15.62c10.41,0,15.34,4.52,15.34,12.81,0,7.54-4,15.69-18,15.69a25.58,25.58,0,0,1-4.52-.34l-1.37,15.48h5.48l-.41,4.32H275.5Zm11.57-19.66a20.51,20.51,0,0,0,3.5.21c7.95,0,13.15-3.36,13.15-11.17,0-3.08-.89-5.21-2.67-6.65s-4.18-2-8.36-2h-3.9Z" transform="translate(-28.69 -27.96)"/><path class="cls-1" d="M329.22,191.75c9.94,0,13.23,8.36,13.23,15.83,0,11.58-5.76,20.9-16.38,20.9-9.93,0-13.22-8.36-13.22-15.76C312.85,201.41,318.6,191.75,329.22,191.75Zm-2.74,32.07c5,0,10.49-3.77,10.49-16.52,0-7.46-3.57-10.89-8.16-10.89-5,0-10.48,3.77-10.48,16.51C318.33,220.39,321.89,223.82,326.48,223.82Z" transform="translate(-28.69 -27.96)"/><path class="cls-1" d="M354.23,179.42h-6.3l.41-4.32H360l-4.25,48.37H361l-.42,4.32H350Z" transform="translate(-28.69 -27.96)"/><path class="cls-1" d="M372.32,196.75h-5.48l.41-4.31H378l-2.81,31h5.2l-.41,4.32H369.51Zm7.95-18.29a3.91,3.91,0,1,1-3.91-3.9A3.95,3.95,0,0,1,380.27,178.46Z" transform="translate(-28.69 -27.96)"/><path class="cls-1" d="M406,196.48a12,12,0,0,0-3.22-.41c-8.08,0-11.65,7.06-11.65,16.24,0,8.29,3.91,11.51,8.91,11.51a21.33,21.33,0,0,0,9.11-2.61l-.48,4.87a20.36,20.36,0,0,1-9.8,2.4c-9.93,0-13.22-8.36-13.22-15.76,0-11.58,5.76-21,17.34-21a25.34,25.34,0,0,1,7.87,1.24l-.68,8.9h-4.45Z" transform="translate(-28.69 -27.96)"/><path class="cls-1" d="M411.66,240.94a13,13,0,0,0,4,.55c3.08,0,5.89-1.3,9.32-8.42l2.05-4.32-9.11-32h-5.2l.41-4.31h9.59l6.51,25.69a17.74,17.74,0,0,1,.82,5h.14c.61-2,1.09-3.77,1.71-5.48l8.22-20.9H434.2l.41-4.31H445.5l-.41,4.31-5.82,14.32c-11.58,28.71-14.46,34.74-23.84,34.74a17.91,17.91,0,0,1-4.18-.55Z" transform="translate(-28.69 -27.96)"/><path class="cls-1" d="M494.22,178.87c13.9,0,19.25,10.28,19.25,21.86,0,17.06-9.59,28-23.3,28S471,218.47,471,206.89C471,189.83,480.58,178.87,494.22,178.87Zm-.48,4.66c-9.94,0-16.86,8.29-16.86,23.43,0,12.34,6.17,17.13,13.77,17.13,10,0,16.93-8.29,16.93-23.5C507.58,188.33,501.41,183.53,493.74,183.53Z" transform="translate(-28.69 -27.96)"/><path class="cls-1" d="M520.11,175.1h11.65c-1.44,13.09-1.44,23.3-3.56,33.64h.14c2.87-10.68,8-17,14.86-17,6.44,0,8.43,6.17,8.43,13.09s-3.36,23.64-18.57,23.64a25.72,25.72,0,0,1-11.3-2.4c1.16-7.33,2.4-25.56,4.31-46.66h-6.3Zm22.2,21.31c-6.3,0-13.63,12.06-14.86,26.72a16,16,0,0,0,5.82,1c8.56,0,12.88-9.59,12.88-19.6C546.15,199.29,545,196.41,542.31,196.41Z" transform="translate(-28.69 -27.96)"/><path class="cls-1" d="M558.34,217.38h4.46l-.28,5.41a20.17,20.17,0,0,0,7.4,1.37c5,0,7.68-2.88,7.68-6.24,0-7.12-18.23-5.2-18.23-15.62,0-6.16,4.18-10.55,13-10.55A33.47,33.47,0,0,1,583,193.6l-.69,8.91h-4.45l.27-5.41a17.75,17.75,0,0,0-6-1c-5.83,0-7.54,3-7.54,5.27,0,3.16,2.67,4.32,6.51,5.76l4,1.51c4.52,1.71,7.74,3.49,7.74,8.56,0,7.4-5.07,11.31-13.36,11.31a31.41,31.41,0,0,1-11.78-2.2Z" transform="translate(-28.69 -27.96)"/><path class="cls-1" d="M613.29,225.87a22.07,22.07,0,0,1-10.69,2.61c-8.7,0-13.08-4.46-13.08-15.9a23.31,23.31,0,0,1,5-15.07,15,15,0,0,1,12.33-5.76c6.78,0,9.73,4,9.73,8,0,8.43-9.66,12.95-21.58,14.32,0,7.19,3.56,9.73,9,9.73a19.43,19.43,0,0,0,9.94-3.15Zm-7.4-29.8c-6.51,0-10.14,6.51-10.89,14.18,9.8-1.23,16.1-4,16.1-10.14C611.1,198.19,609.52,196.07,605.89,196.07Z" transform="translate(-28.69 -27.96)"/><path class="cls-1" d="M622.06,192.44h10.28c-.27,3-.62,8.36-1.64,15.28l.13.13c2-9.66,5.14-16.1,12.4-16.1a14.17,14.17,0,0,1,3.36.35l-.82,5a11.89,11.89,0,0,0-2.33-.28c-6.92,0-11.37,7.81-13.91,31h-5.21c1.44-10.69,2.06-21.51,2.81-31h-5.48Z" transform="translate(-28.69 -27.96)"/><path class="cls-1" d="M649.19,192.44h11c-.28,5.34-.83,13.43-.83,18.09,0,10.75,1.17,13.29,4.25,13.29,5.55,0,11-9,12.33-27.07h-5.48l.41-4.31h10.55c-1.43,19.8-6.44,36-18.84,36-6.51,0-8.84-4.87-8.7-17.95.07-3.84.21-8.23.41-13.78h-5.48Z" transform="translate(-28.69 -27.96)"/><path class="cls-1" d="M718.34,223.47l-.41,4.32H707.65a113.13,113.13,0,0,1,2.6-17.68l-.13-.13c-1.79,6.51-5.69,18.5-14.32,18.5-5.83,0-9-5.28-9-12.82,0-9.25,3.36-16.1,6.3-19,4-4,8.5-4.87,13-4.87a17.3,17.3,0,0,1,7.54,1.65h2.33c-1,4.86-2.19,20.21-2.81,30.07Zm-21.93-.06c7.27,0,12.68-15.83,13.77-26.45a12.63,12.63,0,0,0-4.93-.89c-10.14,0-13,10.28-13,19.52C692.3,220.8,693.74,223.41,696.41,223.41Z" transform="translate(-28.69 -27.96)"/><path class="cls-1" d="M729.57,196.75h-5.68l.34-4.31H730l.83-8.84,5.2-.21-.82,9.05h10.07l-.34,4.31H734.78l-1.92,21.59c-.34,3.42.82,5.48,3.63,5.48a14.77,14.77,0,0,0,7.33-2.13l-.41,4.87a17.49,17.49,0,0,1-7.94,1.92c-5.55,0-8.5-2.88-7.81-10.76Z" transform="translate(-28.69 -27.96)"/><path class="cls-1" d="M764.45,191.75c9.93,0,13.22,8.36,13.22,15.83,0,11.58-5.75,20.9-16.38,20.9-9.93,0-13.22-8.36-13.22-15.76C748.07,201.41,753.83,191.75,764.45,191.75Zm-2.74,32.07c5,0,10.48-3.77,10.48-16.52,0-7.46-3.56-10.89-8.15-10.89-5,0-10.49,3.77-10.49,16.51C753.55,220.39,757.12,223.82,761.71,223.82Z" transform="translate(-28.69 -27.96)"/><path class="cls-1" d="M783.15,192.44h10.28c-.28,3-.62,8.36-1.65,15.28l.14.13c2-9.66,5.14-16.1,12.4-16.1a14.17,14.17,0,0,1,3.36.35l-.82,5a11.89,11.89,0,0,0-2.33-.28c-6.92,0-11.38,7.81-13.91,31h-5.21c1.44-10.69,2.06-21.51,2.81-31h-5.48Z" transform="translate(-28.69 -27.96)"/><path class="cls-1" d="M807.21,240.94a13,13,0,0,0,4,.55c3.08,0,5.89-1.3,9.31-8.42l2.06-4.32-9.11-32h-5.21l.41-4.31h9.59l6.51,25.69a17.74,17.74,0,0,1,.82,5h.14c.62-2,1.1-3.77,1.71-5.48l8.22-20.9h-5.89l.41-4.31h10.9l-.41,4.31-5.83,14.32c-11.58,28.71-14.45,34.74-23.84,34.74a17.91,17.91,0,0,1-4.18-.55Z" transform="translate(-28.69 -27.96)"/><path class="cls-1" d="M324.5,140.09c-20.94,0-35.85-17-35.85-37.66s14.61-37.36,35.54-37.36,35.86,17,35.86,37.66-14.61,37.36-35.55,37.36m0-87.37c-29.62,0-50.56,22.72-50.56,50s20.66,49.72,50.28,49.72,50.55-22.72,50.55-50S354.1,52.72,324.49,52.72" transform="translate(-28.69 -27.96)"/><polygon class="cls-1" points="425.63 25.81 354.16 25.81 354.16 123.43 426.33 123.43 426.33 110.74 368.25 110.74 368.25 80.55 419.64 80.55 419.64 67.86 368.25 67.86 368.25 38.5 425.63 38.5 425.63 25.81"/><path class="cls-1" d="M537.35,126.71c-9,8.44-16.87,13.38-29.77,13.38-20.09,0-35-16.87-35-37.66s14.92-37.36,35-37.36c12,0,20.63,4.92,29,12.75l9.26-10.38c-9.79-9.21-20.37-15.34-38.14-15.34-28.83,0-49.54,22.73-49.54,50.62,0,28.17,20.85,50.35,49.12,50.35,17.77,0,29-6.91,39.19-17.23Z" transform="translate(-28.69 -27.96)"/><path class="cls-1" d="M586.49,138.49H565.4V66.67h21.09c22.46,0,37.13,15.24,37.13,36.06S609,138.49,586.49,138.49m0-84.72H551.31v97.62h35.15c30.73,0,51.88-21.34,51.88-48.95s-21.19-48.67-51.88-48.67" transform="translate(-28.69 -27.96)"/><path class="cls-1" d="M767.66,127.8H724.72l-11.18,24.37H697.23L746.87,45.55l47.88,106.62H778.19Zm-6.17-14.23L746.61,79.46,731,113.57Z" transform="translate(-28.69 -27.96)"/><path class="cls-1" d="M826.42,51.85V152.17H811.29V51.85Z" transform="translate(-28.69 -27.96)"/><path class="cls-1" d="M656,144.11a9,9,0,0,1,15.4-6.3,9.05,9.05,0,1,1-15.4,6.3Z" transform="translate(-28.69 -27.96)"/><path class="cls-2" d="M108.54,262.39a7.56,7.56,0,0,0,2,.28,8.63,8.63,0,0,0,2.92-.5q-4.31-.45-8.5-1.21A14.49,14.49,0,0,0,108.54,262.39Z" transform="translate(-28.69 -27.96)"/><path class="cls-2" d="M139.12,262.78a7.55,7.55,0,0,0,2-.27,15.51,15.51,0,0,0,3.45-1.34c-2.76.47-5.54.83-8.36,1.1A8.61,8.61,0,0,0,139.12,262.78Z" transform="translate(-28.69 -27.96)"/><circle class="cls-3" cx="115.99" cy="115.99" r="114.36"/><path id="Vitruvian_man" data-name="Vitruvian man" class="cls-1" d="M136.22,91.94c.13.51.38.76.63.76s.26-.13.38-.25c0,.38.13.76.13,1,.25,2.27.5,3.28,1.77,4.67,2,2,3.4,2.9,5.3,2.9s3.15-.76,5.17-2.78c1.26-1.26,1.52-2.39,1.77-4.67,0-.25.13-.63.13-1,.12.13.25.26.37.26s.51-.26.64-.76a19.16,19.16,0,0,1,.75-2.9c.51-1.64.13-2.15-.12-2.28a.49.49,0,0,0-.38-.12,1.36,1.36,0,0,0-.89.38c.13-1.52.13-3.29.13-5.05,0-5.3-6.18-6.19-7.57-6.19s-7.58.76-7.58,6.19c0,1.89,0,3.53.13,5.05a1.32,1.32,0,0,0-.88-.38.47.47,0,0,0-.38.12c-.26.26-.63.64-.13,2.28S136.1,91.19,136.22,91.94Zm25.12,160.31a23.78,23.78,0,0,1-3.91-3.16c-1-1-.13-2.9-.51-4.92s-.38-2.78,1.14-9.34a75.32,75.32,0,0,0,2.27-17.42c0-5.55-1.77-7.95-1.89-10.22s.12-4.8,0-8.33a39.81,39.81,0,0,1,.63-9.22c.63-4.16,1.39-9.84,1.89-17.29s.26-12.62-.63-16.54-2.14-6.43-1-10.6-.12-7.32-.25-10.73.13-3.15,1.64-5.3,3.53-12.37,4.8-16.28,1.51-4,1.51-4c9.34-1,12.5-3.28,14.39-4.55s1.64-1,5.05-1.51,6.69-1.26,12.75-4.55a145.41,145.41,0,0,0,13.51-9h1c3,0,5.68-.5,6.94-1.76S222.81,86,223.44,86h2.78c1.39,0,2.4-.76,1.89-1.89-.37-.76-3.53-.89-5.17-.89h-1s1.39-1,3.16-2.52,2.27-.88,4.79-2.27,1.9-2.53,1.9-2.53a70.89,70.89,0,0,1-9.6,2.4c-3.66.63-5.68,2.78-11.11,4.92s-11,2.65-20.07,5.31a55.86,55.86,0,0,0-15.4,7.19,36.93,36.93,0,0,0-5-.38c-9.85,0-13.51,5.05-14.65,4.55h0c-.88.5-3-1.14-4.41-2.28a10.38,10.38,0,0,1-1,1.39c-2.28,2.27-3.92,3.16-6.06,3.16s-3.92-1-6.19-3.28a9.92,9.92,0,0,1-1-1.39,48.11,48.11,0,0,0-4.42,3.78h0c-1.13-1-4.67-6.18-14.64-6.18a38.75,38.75,0,0,0-5,.38,57.74,57.74,0,0,0-15.4-7.32C88.51,85.63,83.08,85.25,77.65,83s-7.44-4.29-11-5a72.17,72.17,0,0,1-9.59-2.52s-.63,1,1.89,2.52,2.91.76,4.67,2.4,3.16,2.52,3.16,2.52h-1c-1.64,0-4.8.13-5.18.89-.5,1.13.51,1.89,1.9,1.89h2.77c.63,0,1.39,0,2.78,1.52C69.32,88.41,72,88.91,75,88.91h1A143.48,143.48,0,0,0,89.52,98c5.93,3.28,9.34,4.17,12.62,4.67s3.16.25,5,1.52,5,3.53,14.26,4.67c0,0,.38,0,1.52,4s3.15,14.13,4.67,16.28,1.77,2,1.64,5.3-1.51,6.57-.25,10.73-.13,6.69-1,10.6-1.14,9.09-.63,16.54a169.74,169.74,0,0,0,1.76,17.29,39.81,39.81,0,0,1,.63,9.22c-.12,3.53,0,6.06-.12,8.33s-1.89,4.54-1.89,10.22a69,69,0,0,0,2.14,17.42c1.52,6.69,1.39,7.32,1,9.47s.51,4-.5,4.92a25.05,25.05,0,0,1-3.92,3.16c-2,1.26-3.15,1.76-2.9,2.52s2,1.52,4.17,2.15a5.56,5.56,0,0,0,2,.25,7.52,7.52,0,0,0,3.92-1,5.77,5.77,0,0,1,3.53-1c1.64,0,2.15-.51,2.15-1.64s-.76-2.27-1.52-3.54a3.29,3.29,0,0,1-.5-3.15c.38-1.14.25-1.39.12-3s.13-8.71.13-12,1.26-5.68,2-8.59a28.49,28.49,0,0,0,.51-9.21,21.09,21.09,0,0,1,.12-5.68c.38-2.78,1.14-6.69,1.89-11.23a63.21,63.21,0,0,0,1.14-12c0-4.67.51-10.22,1-10.22s.88,5.55.88,10.22a55.28,55.28,0,0,0,1,12c.76,4.54,1.52,8.45,1.9,11.23s.5,2.9.12,5.68a28.53,28.53,0,0,0,.38,9.21c.76,2.91,1.9,5.31,1.9,8.59s.12,10.35,0,12-.26,1.89.12,3a3.05,3.05,0,0,1-.63,3.15c-.76,1.27-1.64,2.28-1.51,3.54s.63,1.64,2.14,1.64a5.8,5.8,0,0,1,3.54,1,8.49,8.49,0,0,0,3.91,1,11.62,11.62,0,0,0,2-.25c2.14-.63,3.91-1.27,4.16-2.15S163.49,253.64,161.34,252.25ZM101.76,114.79c3.28-.76,3-.88,5.3-.25a20.61,20.61,0,0,0,10.35.25c2-.38,3.29-1,4.67-.25l-.37-1.52c-.51-1.89-.89-2.77-1-3.28-8.84-1.13-12.12-3.28-14-4.67l-.26-.13a7.3,7.3,0,0,0-3.28-1c-.38,0-.76-.12-1.39-.12a18.09,18.09,0,0,1-4-.89c-1.51,0-3.28,0-5,.13-9.46.63-14.76,2.15-20.7,1.89s-8.45-1.38-12.11-.88a71.42,71.42,0,0,1-9.85,1s-.25,1.14,2.52,1.64,3-.25,5.31.51,3.78,1.26,3.78,1.26-5.43,1.77-5.55,3,1.13,1.51,2.4,1.13,2-.75,2.65-1,1.39-.37,3.15.38,4.8.26,8.08-1.13a137.65,137.65,0,0,0,15.78,3.78C95,115.93,98.35,115.55,101.76,114.79Zm136.71-9a67.44,67.44,0,0,1-9.85-1c-3.66-.63-6.19.63-12.12.76s-11.23-1.39-20.7-2c-1.77-.13-3.41-.13-5.05-.13a28.2,28.2,0,0,1-4,.76,5.93,5.93,0,0,1-1.39.12,4.81,4.81,0,0,0-3.15,1.14l-.25.13c-2,1.26-5.31,3.53-14,4.54-.13.5-.51,1.39-1,3.28a11.49,11.49,0,0,0-.38,1.52c1.39-.76,2.52-.13,4.67.25a20.73,20.73,0,0,0,10.35-.25c2.27-.51,1.89-.38,5.3.38s6.82,1.13,13.51.12a149.25,149.25,0,0,0,15.77-3.66c3.16,1.26,6.31,2,8.08,1.14s2.53-.63,3.16-.38,1.39.5,2.65,1,2.52.12,2.4-1-5.56-3-5.56-3,1.64-.51,3.79-1.26,2.4,0,5.3-.51C238.72,107,238.47,105.83,238.47,105.83ZM125.75,172.35A72.85,72.85,0,0,1,126,158c-.51,1-1,2-1.9,3.66a75.78,75.78,0,0,0-7.44,16.79c-2,6.94-3,9.34-5.3,13.38s-2.28,4-4.8,6.56-6.94,9.22-9.34,18.56S94.57,227.13,93.43,229s-1.51,2.78-2.9,3.16a20.49,20.49,0,0,1-5.43.51c-2.52-.13-3.28-.13-4.67-.64s-2.15-.75-2.52-.25a2,2,0,0,0,.88,2.78c1.39.63,1.26.5,1.77,1.39a7.86,7.86,0,0,0,3.15,2.77A7.49,7.49,0,0,0,87.37,240c1.14.12,1,.12,1.64,1a6.42,6.42,0,0,0,2.53,2.9c1.64,1.14,2.65,1.26,3.53.5s1.52-2,1.52-4.29.12-3.28.88-4.42,2.53-5,4.17-8.58,2.65-5.68,5.42-8.71,5.31-4.67,7.07-9.09,1.64-5.3,3.16-7.07a13.85,13.85,0,0,0,2.4-3.78c.63-1.26,1.13-1.64,3.15-3.91,1.39-1.52,3.16-3.67,4.67-5.69A135.44,135.44,0,0,1,125.75,172.35Zm81.54,60.21c-1.39.5-2.15.5-4.67.5a15.81,15.81,0,0,1-5.43-.63c-1.39-.38-1.77-1.26-2.9-3.15s-1.39-2.65-3.79-12.12-6.69-16.16-9.21-18.68-2.53-2.53-4.8-6.57-3.28-6.43-5.3-13.5a74.45,74.45,0,0,0-7.32-16.92c-.89-1.51-1.39-2.65-1.9-3.66a74.51,74.51,0,0,1,.13,14.39c-.38,5.81-.88,11.24-1.77,16.79,1.52,2.15,3.28,4.29,4.55,5.81,2,2.27,2.52,2.65,3.15,3.91a13.77,13.77,0,0,0,2.4,3.79c1.51,1.76,1.51,2.65,3.16,7.19s4.29,6.19,6.94,9.09a29.33,29.33,0,0,1,5.3,8.71c1.64,3.66,3.41,7.57,4.16,8.71s.76,2.15.89,4.42a6.26,6.26,0,0,0,1.51,4.29c.89.76,1.9.63,3.54-.51a6.81,6.81,0,0,0,2.52-2.77c.51-.89.38-.89,1.64-1a7.82,7.82,0,0,0,3.66-1.26,8.89,8.89,0,0,0,3.16-2.78c.5-.89.38-.76,1.77-1.39a2,2,0,0,0,.88-2.78C209.43,231.93,208.68,232.18,207.29,232.56Z" transform="translate(-28.69 -27.96)"/><path class="cls-4" d="M194.79,245.18c-1,.38-1.64.38-2.27-.25-.88-.76-1.52-2-1.52-4.29s-.12-3.28-.88-4.42-2.4-5.05-4.16-8.71a29.57,29.57,0,0,0-5.31-8.71c-2.65-3-5.3-4.67-6.94-9.09s-1.64-5.3-3.15-7.19a13.77,13.77,0,0,1-2.4-3.79c-.63-1.26-1.14-1.64-3.16-3.91a63.32,63.32,0,0,1-4.54-5.81c.88-5.43,1.39-11,1.76-16.79a78.32,78.32,0,0,0-.12-13.63c-.13,0-.13.13-.25.13h-1a91,91,0,0,1,.12,13.5c-.5,7.45-1.26,13.13-1.89,17.3s-.88,5.68-.63,9.21,0,6.06,0,8.33,1.77,4.55,1.89,10.23a76.13,76.13,0,0,1-2.27,17.41c-1.52,6.69-1.39,7.33-1.14,9.35s-.5,4,.51,4.92a18.85,18.85,0,0,0,3.91,3.15c2,1.27,3.16,1.77,2.78,2.53s-2,1.51-4.17,2.14a5.41,5.41,0,0,1-2,.26,7.51,7.51,0,0,1-3.91-1,5.77,5.77,0,0,0-3.53-1c-1.65,0-2.15-.51-2.15-1.64s.76-2.28,1.51-3.54,1-2,.64-3.15-.26-1.39-.13-3,0-8.71,0-12-1.14-5.68-1.89-8.59a25.19,25.19,0,0,1-.38-9.21c.38-2.91.12-2.91-.13-5.68s-1.13-6.69-1.89-11.24a53.92,53.92,0,0,1-1-12c.12-4.67-.25-10.22-.89-10.22s-1.13,5.55-1,10.22A63,63,0,0,1,142,197c-.76,4.55-1.64,8.46-1.89,11.24a14.3,14.3,0,0,0-.13,5.68,28.31,28.31,0,0,1-.51,9.21c-.75,2.91-1.89,5.3-2,8.59s-.25,10.35-.12,12,.25,1.89-.13,3a3.27,3.27,0,0,0,.51,3.15c.75,1.26,1.51,2.27,1.51,3.54s-.63,1.64-2.14,1.64a5.78,5.78,0,0,0-3.54,1,9,9,0,0,1-3.91,1,10.75,10.75,0,0,1-2-.26c-2.15-.63-3.91-1.38-4.17-2.14s.76-1.26,2.91-2.53a24.37,24.37,0,0,0,3.91-3.15c1-.89.13-2.9.5-4.92s.38-2.78-1-9.47-2.27-11.74-2.14-17.42,1.89-7.95,1.89-10.22,0-4.8.13-8.34a40.32,40.32,0,0,0-.63-9.21,169.85,169.85,0,0,1-1.77-17.29,88.83,88.83,0,0,1,.13-13.26h-1.27a76.63,76.63,0,0,0-.12,13.38c.25,5.81.88,11.24,1.64,16.79a47,47,0,0,1-4.67,5.68c-2,2.27-2.53,2.65-3.16,3.91a17.64,17.64,0,0,1-2.4,3.79c-1.51,1.77-1.51,2.65-3.15,7.07s-4.29,6.06-7.07,9.09a32.72,32.72,0,0,0-5.43,8.71c-1.76,3.66-3.41,7.57-4.16,8.58s-.76,2.15-.89,4.42a6.21,6.21,0,0,1-1.51,4.29c-.76.76-1.64.63-3-.25-.25.25-.38.5-.63.76a114.06,114.06,0,0,0,105,.88,3.92,3.92,0,0,0-1.26-.63C194.92,245.43,194.92,245.31,194.79,245.18Z" transform="translate(-28.69 -27.96)"/><path class="cls-2" d="M144.68,29.59a114.4,114.4,0,0,0-54,215.21l.76-.75a6,6,0,0,1-2.4-2.78c-.5-1-.37-1-1.64-1A7.89,7.89,0,0,1,83.71,239a8.93,8.93,0,0,1-3.15-2.78c-.51-.88-.38-.76-1.77-1.39a2,2,0,0,1-.88-2.78c.37-.5,1.13-.25,2.52.26s2.15.5,4.67.63a20.69,20.69,0,0,0,5.43-.51c1.39-.25,1.77-1.26,2.9-3.15s1.39-2.65,3.79-12.12,6.81-16,9.34-18.56,2.52-2.52,4.8-6.56,3.28-6.44,5.3-13.38a75.78,75.78,0,0,1,7.44-16.79c.76-1.26,1.27-2.27,1.65-3v-.12c.12-.13.12-.38.25-.51v.38h1.26a19,19,0,0,1,.51-2.65c.88-3.91,2.27-6.44,1-10.6s.13-7.32.26-10.73-.13-3.16-1.64-5.3-3.54-12.37-4.67-16.29-1.52-4-1.52-4c-9.34-1.13-12.37-3.4-14.26-4.67s-1.64-1-5-1.51-6.69-1.26-12.62-4.67c-5.94-3.66-13.38-9.34-13.38-9.34h-1c-3,0-5.68-.51-6.95-1.77s-2.14-1.51-2.77-1.51H62.38c-1.39,0-2.4-.76-1.89-1.9.38-.76,3.53-.88,5.17-.88h1s-1.39-1-3.15-2.53-2.15-.88-4.67-2.39S57,75.28,57,75.28a97,97,0,0,0,9.6,2.53c3.66.75,5.68,2.77,11,5s11,2.78,20.07,5.43A53.77,53.77,0,0,1,113,95.6a36.86,36.86,0,0,1,5-.37c9.84,0,13.5,5.17,14.64,6.18h0c1-1,3.15-2.52,4.42-3.79a8.87,8.87,0,0,0,1,1.39c2.14,2.27,4,3.28,6.18,3.28s3.91-.88,6.06-3.15a5,5,0,0,0,1-1.39c1.39,1.26,3.53,2.78,4.42,2.27h0c1.13.51,4.79-4.54,14.64-4.54a37,37,0,0,1,5,.38,55.53,55.53,0,0,1,15.4-7.2c9.09-2.65,14.64-3,20.07-5.3s7.45-4.29,11.11-4.92a66.51,66.51,0,0,0,9.59-2.4s.63,1-1.89,2.52-2.91.76-4.8,2.28-3.16,2.52-3.16,2.52h1c1.64,0,4.8.13,5.18.88.5,1.14-.51,1.9-1.89,1.9h-2.78c-.63,0-1.39,0-2.78,1.51-1.26,1.26-3.91,1.77-6.94,1.77h-1a143.91,143.91,0,0,1-13.51,9c-5.93,3.28-9.34,4-12.75,4.54s-3.15.26-5,1.52-5,3.53-14.39,4.54c0,0-.38,0-1.52,4s-3.16,14.14-4.8,16.29-1.76,1.89-1.64,5.3,1.39,6.56.26,10.73.12,6.69,1,10.6c.12.76.25,1.51.37,2.4h1.14c.13,0,.13,0,.13.12v-.25a33.78,33.78,0,0,0,1.89,3.66,80.44,80.44,0,0,1,7.32,16.92c1.89,6.94,3,9.46,5.3,13.5s2.15,4,4.8,6.57,6.94,9.21,9.21,18.68,2.53,10.22,3.79,12.12,1.51,2.9,2.9,3.15a19.29,19.29,0,0,0,5.43.63,18.83,18.83,0,0,0,4.67-.5c1.39-.51,2.15-.76,2.53-.25a2.1,2.1,0,0,1-.89,2.77c-1.39.63-1.26.51-1.76,1.39a7.91,7.91,0,0,1-3.16,2.78,7.46,7.46,0,0,1-3.66,1.26c-1.14.13-1,.13-1.64,1a7.1,7.1,0,0,1-2.53,2.78.66.66,0,0,1-.5.25,5.22,5.22,0,0,1,1.39.88A114.49,114.49,0,0,0,144.68,29.59ZM60,104.06c3.66-.63,6.19.63,12.12.88s11.23-1.26,20.7-1.89c1.77-.13,3.41-.13,5-.13,1.51.38,2.78.64,4,.89a5.93,5.93,0,0,0,1.39.12,5.35,5.35,0,0,1,3,1.14l.25.13c2,1.26,5.17,3.53,14,4.67.13.5.51,1.39,1,3.28a13.08,13.08,0,0,1,.38,1.51c-1.39-.75-2.53-.12-4.67.26a20.67,20.67,0,0,1-10.35-.26c-2.27-.5-1.9-.37-5.3.26s-6.82,1.13-13.51.12a137.65,137.65,0,0,1-15.78-3.78c-3.28,1.26-6.31,2-8.08,1.13s-2.52-.63-3.15-.38-1.39.51-2.65,1-2.53.13-2.4-1.13,5.55-3,5.55-3-1.64-.51-3.78-1.26-2.4,0-5.31-.51S50,105.45,50,105.45C53.42,104.94,56.32,104.69,60,104.06Zm93.16-14.89c-.51,1.64-.51,2.14-.76,2.9-.13.5-.38.76-.63.76s-.25-.13-.38-.26c0,.38-.13.76-.13,1-.25,2.28-.5,3.29-1.76,4.67-2,2-3.41,2.78-5.18,2.78s-3.28-.76-5.3-2.9c-1.26-1.26-1.52-2.4-1.77-4.67,0-.25-.12-.63-.12-1-.13.12-.26.25-.38.25s-.51-.25-.63-.76a21.38,21.38,0,0,0-.76-2.9c-.51-1.64-.13-2.15.12-2.27a.47.47,0,0,1,.38-.13,1.39,1.39,0,0,1,.89.38c0-1.51-.13-3.28-.13-5,0-5.3,6.19-6.18,7.57-6.18s7.58.88,7.58,6.18c0,1.89,0,3.54-.13,5a1.37,1.37,0,0,1,.89-.38.44.44,0,0,1,.37.13C153.26,87,153.64,87.53,153.14,89.17Zm82.67,18.3c-2.9.5-3-.25-5.3.5l-3.78,1.27s5.42,1.76,5.55,3-1.14,1.51-2.4,1-2-.76-2.65-1-1.39-.51-3.15.37-4.8.13-8.08-1.13a149.72,149.72,0,0,1-15.78,3.66,35.42,35.42,0,0,1-13.51-.13c-3.28-.75-3-.88-5.3-.38a20.67,20.67,0,0,1-10.35.26c-2-.38-3.28-1-4.67-.26l.38-1.51c.5-1.89.88-2.78,1-3.28,8.83-1,12.12-3.16,14-4.55l.25-.12a5.28,5.28,0,0,1,3.16-1.14c.38,0,.76-.13,1.39-.13a27,27,0,0,0,4-.75c1.64,0,3.28,0,5,.12,9.47.76,14.77,2.28,20.71,2s8.45-1.39,12.11-.75a71.27,71.27,0,0,0,9.85,1C238.47,105.83,238.72,107,235.81,107.47Z" transform="translate(-28.69 -27.96)"/><path class="cls-5" d="M80.3,232.18c1.39.51,2.15.51,4.67.63a20.71,20.71,0,0,0,5.43-.5c1.39-.26,1.77-1.27,2.91-3.16s1.38-2.65,3.78-12.12,6.82-16,9.34-18.55,2.53-2.53,4.8-6.57,3.28-6.43,5.3-13.38A75,75,0,0,1,124,161.75a26.52,26.52,0,0,0,1.89-3.66v.12c.13-.12.13-.12.25-.12h1c.13-.76.26-1.52.38-2.15.89-3.91,2.27-6.44,1-10.6s.13-7.32.25-10.73-.12-3.16-1.64-5.3c-1.38-1.9-3-10-4.16-14.65h-1.26v.13c-1.39-.76-2.53-.13-4.67.25a20.58,20.58,0,0,1-10.35-.25c-2.28-.5-1.9-.38-5.31.25s-6.81,1.14-13.5.13a136.74,136.74,0,0,1-15.78-3.79c-3.28,1.26-6.31,2-8.08,1.14s-2.52-.63-3.15-.38-1.39.5-2.66,1-2.52.13-2.39-1.14,5.55-3,5.55-3-1.64-.5-3.79-1.26-2.39,0-5.3-.5c-2.52-.38-2.65-1.39-2.65-1.64H37a113.3,113.3,0,0,0-6.82,38.87A114.5,114.5,0,0,0,91.41,245.81v-.88c0-.13,0-.13.13-.13s-.13,0-.13-.12a6.34,6.34,0,0,1-2.52-2.91c-.51-1-.38-1-1.64-1a7.71,7.71,0,0,1-3.66-1.26,8.79,8.79,0,0,1-3.16-2.78c-.5-.88-.38-.75-1.77-1.38a2,2,0,0,1-.88-2.78C78.16,231.42,79,231.68,80.3,232.18Z" transform="translate(-28.69 -27.96)"/><path class="cls-2" d="M144.68,29.59A114.64,114.64,0,0,0,37.26,104.44H50.14c.37,0,.37.5.25.63a65.85,65.85,0,0,0,9.59-1c3.66-.63,6.19.63,12.12.88s11.23-1.26,20.7-1.89c1.77-.13,3.41-.13,5-.13,1.51.38,2.78.64,4,.89a5.93,5.93,0,0,0,1.39.12,5.35,5.35,0,0,1,3,1.14l.25.13c2,1.26,5.17,3.53,14,4.67.13.5.51,1.39,1,3.28,0,.25.13.38.13.63H123c-.13-.38-.13-.76-.25-1-1.14-4-1.52-4-1.52-4-9.34-1.13-12.37-3.41-14.26-4.67s-1.64-1-5-1.51-6.69-1.27-12.62-4.67a151.79,151.79,0,0,1-13.38-9.09h-1c-3,0-5.68-.51-6.95-1.77s-2.14-1.51-2.77-1.51H62.38c-1.39,0-2.4-.76-1.89-1.9.38-.76,3.53-.88,5.17-.88h1s-1.39-1-3.15-2.53-2.15-.88-4.67-2.39S57,75.28,57,75.28a97,97,0,0,0,9.6,2.53c3.66.75,5.68,2.77,11,5s11,2.78,20.07,5.43A53.77,53.77,0,0,1,113,95.6a36.86,36.86,0,0,1,5-.37c9.84,0,13.5,5.17,14.64,6.18h0c1-1,3.15-2.52,4.42-3.79a8.87,8.87,0,0,0,1,1.39c2.14,2.27,4,3.28,6.18,3.28s3.91-.88,6.06-3.15a5,5,0,0,0,1-1.39c1.39,1.26,3.53,2.78,4.42,2.27h0c1.13.51,4.79-4.54,14.64-4.54a37,37,0,0,1,5,.38,55.53,55.53,0,0,1,15.4-7.2c9.09-2.65,14.64-3,20.07-5.3s7.45-4.29,11.11-4.92a66.51,66.51,0,0,0,9.59-2.4s.63,1-1.89,2.52-2.91.76-4.8,2.28-3.16,2.52-3.16,2.52h1c1.64,0,4.8.13,5.18.88.5,1.14-.51,1.9-1.89,1.9h-2.78c-.63,0-1.39,0-2.78,1.51-1.26,1.26-3.91,1.77-6.94,1.77h-1a143.91,143.91,0,0,1-13.51,9c-5.93,3.28-9.34,4-12.75,4.54s-3.15.26-5,1.52-5,3.53-14.39,4.54c0,0-.38,0-1.52,4s-3.16,14.14-4.8,16.29-1.76,1.89-1.64,5.3,1.39,6.56.26,10.73.12,6.69,1,10.6,1,9.09.63,16.54-1.27,13.12-1.9,17.29-.88,5.68-.63,9.21,0,6.06,0,8.33,1.77,4.55,1.9,10.23A75.71,75.71,0,0,1,157.93,235c-1.51,6.69-1.39,7.32-1.13,9.34s-.51,4,.5,4.92a19.28,19.28,0,0,0,3.92,3.16c2,1.26,3.15,1.76,2.77,2.52s-2,1.52-4.16,2.15a5.61,5.61,0,0,1-2,.25,7.52,7.52,0,0,1-3.92-1,5.75,5.75,0,0,0-3.53-1c-1.64,0-2.15-.51-2.15-1.64s.76-2.27,1.52-3.54,1-2,.63-3.15-.25-1.39-.13-3,0-8.71,0-12-1.13-5.68-1.89-8.59a25.18,25.18,0,0,1-.38-9.21c.38-2.9.13-2.9-.12-5.68s-1.14-6.69-1.9-11.23a54.67,54.67,0,0,1-1-12c.13-4.67-.25-10.22-.88-10.22s-1.14,5.55-1,10.22a63.21,63.21,0,0,1-1.14,12c-.75,4.54-1.64,8.45-1.89,11.23a14.3,14.3,0,0,0-.13,5.68,28,28,0,0,1-.5,9.21c-.76,2.91-1.9,5.31-2,8.59s-.25,10.35-.13,12,.25,1.89-.12,3a3.26,3.26,0,0,0,.5,3.15c.76,1.27,1.52,2.28,1.52,3.54s-.64,1.64-2.15,1.64a5.75,5.75,0,0,0-3.53,1,9,9,0,0,1-3.92,1,11.62,11.62,0,0,1-2-.25c-2.14-.63-3.91-1.39-4.16-2.15s.75-1.26,2.9-2.52a24.88,24.88,0,0,0,3.91-3.16c1-.88.13-2.9.51-4.92s.38-2.78-1-9.47a68.39,68.39,0,0,1-2.15-17.42c.13-5.55,1.9-7.95,1.9-10.22s0-4.8.12-8.33a39.81,39.81,0,0,0-.63-9.22,169.22,169.22,0,0,1-1.77-17.29,77.59,77.59,0,0,1,.26-13.76h-.89a.28.28,0,0,1-.25-.25,81.37,81.37,0,0,0-.25,14c.25,5.81.88,11.23,1.64,16.79a47.8,47.8,0,0,1-4.67,5.68c-2,2.27-2.53,2.65-3.16,3.91a17.88,17.88,0,0,1-2.4,3.79c-1.51,1.76-1.51,2.65-3.15,7.07s-4.29,6-7.07,9.08a32.72,32.72,0,0,0-5.43,8.71C100,231,98.35,235,97.6,236s-.76,2.14-.89,4.42a6.21,6.21,0,0,1-1.51,4.29c-.63.63-1.52.63-2.65,0v1A114.28,114.28,0,0,0,259.29,144.07C259,80.84,207.79,29.59,144.68,29.59Zm8.46,59.58c-.51,1.64-.51,2.14-.76,2.9-.13.5-.38.76-.63.76s-.25-.13-.38-.26c0,.38-.13.76-.13,1-.25,2.28-.5,3.29-1.76,4.67-2,2-3.41,2.78-5.18,2.78s-3.28-.76-5.3-2.9c-1.26-1.26-1.52-2.4-1.77-4.67,0-.25-.12-.63-.12-1-.13.12-.26.25-.38.25s-.51-.25-.63-.76a21.38,21.38,0,0,0-.76-2.9c-.51-1.64-.13-2.15.12-2.27a.47.47,0,0,1,.38-.13,1.39,1.39,0,0,1,.89.38c0-1.51-.13-3.28-.13-5,0-5.3,6.19-6.18,7.57-6.18s7.58.88,7.58,6.18c0,1.89,0,3.54-.13,5a1.37,1.37,0,0,1,.89-.38.44.44,0,0,1,.37.13C153.26,87,153.64,87.53,153.14,89.17Zm55.66,146c-1.39.63-1.26.5-1.76,1.39a7.91,7.91,0,0,1-3.16,2.78,7.46,7.46,0,0,1-3.66,1.26c-1.14.12-1,.12-1.64,1a7.09,7.09,0,0,1-2.53,2.77c-1.64,1.14-2.65,1.27-3.53.51s-1.52-2-1.52-4.29-.12-3.28-.88-4.42-2.4-5.05-4.16-8.71a29.57,29.57,0,0,0-5.31-8.71c-2.65-3-5.3-4.67-6.94-9.09s-1.64-5.3-3.15-7.19a13.77,13.77,0,0,1-2.4-3.79c-.63-1.26-1.14-1.64-3.16-3.91a63.32,63.32,0,0,1-4.54-5.81c.88-5.43,1.39-11,1.76-16.79a87,87,0,0,0-.12-14.39,35.72,35.72,0,0,0,1.89,3.66,80.44,80.44,0,0,1,7.32,16.92c1.9,6.94,3,9.47,5.3,13.5s2.15,4,4.8,6.57,6.94,9.21,9.22,18.68,2.52,10.22,3.78,12.12,1.52,2.9,2.91,3.15a19.16,19.16,0,0,0,5.42.63,18.77,18.77,0,0,0,4.67-.5c1.39-.51,2.15-.76,2.53-.25C210.06,232.94,210.19,234.58,208.8,235.21Zm27-127.74c-2.9.5-3-.25-5.3.5l-3.78,1.27s5.42,1.76,5.55,3-1.14,1.51-2.4,1-2-.76-2.65-1-1.39-.51-3.15.37-4.8.13-8.08-1.13a149.72,149.72,0,0,1-15.78,3.66,35.42,35.42,0,0,1-13.51-.13c-3.28-.75-3-.88-5.3-.38a20.67,20.67,0,0,1-10.35.26c-2-.38-3.28-1-4.67-.26l.38-1.51c.5-1.89.88-2.78,1-3.28,8.83-1,12.12-3.16,14-4.55l.25-.12a5.28,5.28,0,0,1,3.16-1.14c.38,0,.76-.13,1.39-.13a27,27,0,0,0,4-.75c1.64,0,3.28,0,5,.12,9.47.76,14.77,2.28,20.71,2s8.45-1.39,12.11-.75a71.27,71.27,0,0,0,9.85,1C238.47,105.83,238.72,107,235.81,107.47Z" transform="translate(-28.69 -27.96)"/><path class="cls-2" d="M127.51,257.05a5.61,5.61,0,0,0,2,.25,10.56,10.56,0,0,0,2.91-.51c-2.91-.25-5.68-.75-8.46-1.13A12.28,12.28,0,0,0,127.51,257.05Z" transform="translate(-28.69 -27.96)"/><path class="cls-2" d="M158.06,257.43a10.75,10.75,0,0,0,2-.26,12.54,12.54,0,0,0,3.41-1.39q-4.17.77-8.33,1.14A7.36,7.36,0,0,0,158.06,257.43Z" transform="translate(-28.69 -27.96)"/><path class="cls-2" d="M150.61,255.53c-1.64,0-2.14-.5-2.14-1.64s.75-2.27,1.51-3.53,1-2,.63-3.16-.25-1.39-.12-3,0-8.71,0-12-1.14-5.68-1.9-8.58a25.69,25.69,0,0,1-.38-9.22c.38-2.9.13-2.9-.12-5.68s-1.14-6.69-1.9-11.23a55.19,55.19,0,0,1-1-12c.13-4.67-.25-10.23-.88-10.23s-1.14,5.56-1,10.23a63.11,63.11,0,0,1-1.14,12c-.75,4.54-1.64,8.46-1.89,11.23a14.31,14.31,0,0,0-.12,5.68,28.37,28.37,0,0,1-.51,9.22c-.76,2.9-1.89,5.3-2,8.58s-.25,10.35-.13,12,.26,1.9-.12,3a3.31,3.31,0,0,0,.5,3.16c.76,1.26,1.52,2.27,1.52,3.53s-.63,1.64-2.15,1.64a5.77,5.77,0,0,0-3.53,1,7.34,7.34,0,0,0-1,.51,114.05,114.05,0,0,0,11.48.63,109.53,109.53,0,0,0,11.24-.51,2.46,2.46,0,0,1-1-.5A5.56,5.56,0,0,0,150.61,255.53Z" transform="translate(-28.69 -27.96)"/><path class="cls-2" d="M175.6,96.11a55.71,55.71,0,0,1,15.4-7.2c9.09-2.65,14.65-3,20.07-5.3s7.45-4.29,11.11-4.92a91.93,91.93,0,0,0,9.34-2.27.45.45,0,0,1,.13-.38,30.54,30.54,0,0,0,4-1.89A114.42,114.42,0,1,0,124,255.66c-.38-.25-.63-.51-.63-.76-.26-.76.75-1.26,2.9-2.52a24.88,24.88,0,0,0,3.91-3.16c1-.88.13-2.9.51-4.92s.38-2.78-1-9.47a68.39,68.39,0,0,1-2.15-17.42c.13-5.55,1.9-7.95,1.9-10.22s0-4.8.12-8.33a39.81,39.81,0,0,0-.63-9.22,169.22,169.22,0,0,1-1.77-17.29c-.37-7.45-.25-12.62.64-16.54s2.27-6.43,1-10.6.13-7.32.26-10.73-.13-3.15-1.64-5.3-3.54-12.37-4.67-16.28-1.52-4-1.52-4c-9.34-1.14-12.37-3.41-14.26-4.67s-1.64-1-5-1.52S95.2,101.41,89.27,98a134.37,134.37,0,0,1-13.51-9.09h-1c-3,0-5.68-.5-6.94-1.76S65.66,85.63,65,85.63H62.25c-1.38,0-2.39-.76-1.89-1.89.38-.76,3.53-.89,5.18-.89h1s-1.39-1-3.16-2.52-2.15-.88-4.67-2.4-1.89-2.52-1.89-2.52a96.14,96.14,0,0,0,9.59,2.52c3.66.76,5.68,2.78,11,5s11,2.78,20.07,5.43a53.77,53.77,0,0,1,15.4,7.32,37.07,37.07,0,0,1,5-.38c9.85,0,13.51,5.18,14.64,5.18h0c1,0,3.16-1.64,4.42-2.78a9.92,9.92,0,0,0,1,1.39c2.15,2.27,4,3.28,6.18,3.28s3.92-.88,6.06-3.16a4.66,4.66,0,0,0,1-1.38c1.39,1.26,3.54,2.77,4.42,2.77h0c1.14,0,4.8-5.17,14.64-5.05C172.2,95.73,173.84,95.86,175.6,96.11Zm-51.37,65.76a24.94,24.94,0,0,0,1.89-3.66,73.66,73.66,0,0,0-.25,14.39c.25,5.81.89,11.24,1.64,16.79a46.08,46.08,0,0,1-4.67,5.68c-2,2.27-2.52,2.65-3.15,3.91a17.64,17.64,0,0,1-2.4,3.79c-1.52,1.77-1.52,2.65-3.16,7.07s-4.29,6.06-7.07,9.09a32.43,32.43,0,0,0-5.42,8.71c-1.77,3.66-3.41,7.57-4.17,8.58s-.76,2.15-.88,4.42a6.26,6.26,0,0,1-1.52,4.29c-.88.76-1.89.63-3.53-.51a6.37,6.37,0,0,1-2.53-2.9c-.5-1-.37-1-1.64-1a7.78,7.78,0,0,1-3.66-1.26,8.83,8.83,0,0,1-3.15-2.78c-.51-.88-.38-.76-1.77-1.39a2,2,0,0,1-.88-2.77c.37-.51,1.13-.26,2.52.25s2.15.5,4.67.63a20.76,20.76,0,0,0,5.43-.5c1.39-.26,1.77-1.27,2.9-3.16s1.39-2.65,3.79-12.12,6.81-16,9.34-18.55,2.52-2.53,4.8-6.57,3.28-6.43,5.3-13.38A78.3,78.3,0,0,1,124.23,161.87ZM60.11,104.44c3.66-.63,6.18.63,12.12.88s11.23-1.26,20.7-1.89c1.76-.13,3.4-.13,5-.13,1.51.38,2.77.63,4,.89a5.85,5.85,0,0,0,1.38.12c1.9.26,1.9.26,3.16,1.14l.25.13c2,1.26,5.18,3.53,14,4.67.13.5.51,1.38,1,3.28a13.08,13.08,0,0,1,.38,1.51c-1.39-.75-2.52-.12-4.67.26a20.67,20.67,0,0,1-10.35-.26c-2.27-.5-1.89-.38-5.3.26s-6.82,1.13-13.51.12a136.74,136.74,0,0,1-15.78-3.79c-3.28,1.27-6.31,2-8.07,1.14s-2.53-.63-3.16-.38-1.39.51-2.65,1-2.53.13-2.4-1.13,5.56-3,5.56-3-1.65-.51-3.79-1.27-2.4,0-5.3-.5-2.53-1.64-2.53-1.64C53.54,105.32,56.45,105.07,60.11,104.44Zm93.15-15c-.5,1.64-.5,2.14-.75,2.9-.13.51-.38.76-.64.76s-.25-.13-.37-.25c0,.38-.13.75-.13,1-.25,2.27-.51,3.28-1.77,4.67-2,2-3.41,2.77-5.17,2.77s-3.28-.75-5.3-2.9c-1.27-1.26-1.52-2.4-1.77-4.67,0-.25-.13-.63-.13-1-.12.13-.25.25-.38.25s-.5-.25-.63-.75a18.4,18.4,0,0,0-.76-2.91c-.5-1.64-.12-2.14.13-2.27a.46.46,0,0,1,.38-.13,1.37,1.37,0,0,1,.88.38c0-1.51-.12-3.28-.12-5,0-5.3,6.18-6.18,7.57-6.18s7.57.88,7.57,6.18c0,1.9,0,3.54-.12,5a1.37,1.37,0,0,1,.88-.38A.46.46,0,0,1,153,87C153.39,87.4,153.77,87.78,153.26,89.42Z" transform="translate(-28.69 -27.96)"/><path class="cls-2" d="M163.49,255.91a112.92,112.92,0,0,0,32.31-10.6l-.13-.13c-1.38.89-2.27.89-3,.13s-1.52-2-1.52-4.29-.13-3.29-.88-4.42-2.4-5-4.17-8.71a29.33,29.33,0,0,0-5.3-8.71c-2.65-3-5.3-4.67-6.94-9.09s-1.64-5.3-3.16-7.19a14,14,0,0,1-2.4-3.79c-.63-1.26-1.13-1.64-3.15-3.91a63.29,63.29,0,0,1-4.55-5.81c.89-5.43,1.39-11,1.77-16.79a71.9,71.9,0,0,0,0-12.87h-1.26a70.55,70.55,0,0,1,0,12.75c-.51,7.44-1.26,13.12-1.89,17.29s-.89,5.68-.64,9.21,0,6.06,0,8.33,1.77,4.55,1.9,10.23A76.21,76.21,0,0,1,158.19,235c-1.52,6.69-1.39,7.32-1.14,9.34s-.51,4,.5,4.92a19.28,19.28,0,0,0,3.92,3.16c2,1.26,3.15,1.76,2.77,2.52C164.24,255.41,164,255.66,163.49,255.91Z" transform="translate(-28.69 -27.96)"/><path class="cls-5" d="M236.07,74.65a23.21,23.21,0,0,1-4,1.89c.12.38,0,1.14-1.9,2.28-2.52,1.51-2.9.75-4.79,2.27s-3.16,2.52-3.16,2.52h1c1.64,0,4.8.13,5.18.89.5,1.13-.51,1.89-1.9,1.89H223.7c-.63,0-1.39,0-2.78,1.51-1.26,1.27-3.91,1.77-6.94,1.77h-1a145.41,145.41,0,0,1-13.51,9c-5.93,3.29-9.34,4-12.75,4.55s-3.15.25-5.05,1.51-5,3.54-14.39,4.55c0,0-.37,0-1.51,4s-3.16,14.13-4.8,16.28-1.76,1.89-1.64,5.3,1.39,6.56.25,10.73.13,6.69,1,10.6a25,25,0,0,1,.51,3.28h1.26c0-.37-.13-.63-.13-1a34.21,34.21,0,0,0,1.9,3.66A80.44,80.44,0,0,1,171.44,179c1.89,6.94,3,9.47,5.3,13.51s2.15,4,4.8,6.56,6.94,9.21,9.21,18.68,2.53,10.22,3.79,12.12,1.51,2.9,2.9,3.15a22.53,22.53,0,0,0,10.1.13c1.39-.5,2.15-.76,2.52-.25a2.09,2.09,0,0,1-.88,2.77c-1.39.64-1.26.51-1.77,1.39a7.73,7.73,0,0,1-3.15,2.78,7.36,7.36,0,0,1-3.66,1.26c-1.14.13-1,.13-1.64,1a7,7,0,0,1-2.53,2.78h0l.13.13A114.18,114.18,0,0,0,259,143.57,117,117,0,0,0,236.07,74.65Zm-.13,33.07c-2.9.51-3-.25-5.3.51l-3.79,1.26s5.43,1.77,5.56,3-1.14,1.51-2.4,1-2-.76-2.65-1-1.39-.51-3.16.38-4.79.12-8.08-1.14a149.25,149.25,0,0,1-15.77,3.66,35.47,35.47,0,0,1-13.51-.12c-3.28-.76-3-.89-5.3-.38a20.73,20.73,0,0,1-10.35.25c-2-.38-3.28-1-4.67-.25l.38-1.52c.5-1.89.88-2.78,1-3.28,8.83-1,12.11-3.16,14-4.54l.25-.13a5.4,5.4,0,0,1,3.15-1.14c.38,0,.76-.12,1.39-.12a27.94,27.94,0,0,0,4-.76c1.64,0,3.28,0,5.05.13,9.47.75,14.77,2.27,20.7,2s8.46-1.39,12.12-.76a71.11,71.11,0,0,0,9.85,1C238.59,106.08,238.84,107.34,235.94,107.72Z" transform="translate(-28.69 -27.96)"/><circle class="cls-6" cx="115.99" cy="115.99" r="114.36"/><path id="Vitruvian_man-2" data-name="Vitruvian man" class="cls-2" d="M136.22,91.94c.13.51.38.76.63.76s.26-.13.38-.25c0,.38.13.76.13,1,.25,2.27.5,3.28,1.77,4.67,2,2,3.4,2.9,5.3,2.9s3.15-.76,5.17-2.78c1.26-1.26,1.52-2.39,1.77-4.67,0-.25.13-.63.13-1,.12.13.25.26.37.26s.51-.26.64-.76a19.16,19.16,0,0,1,.75-2.9c.51-1.64.13-2.15-.12-2.28a.49.49,0,0,0-.38-.12,1.36,1.36,0,0,0-.89.38c.13-1.52.13-3.29.13-5.05,0-5.3-6.18-6.19-7.57-6.19s-7.58.76-7.58,6.19c0,1.89,0,3.53.13,5.05a1.32,1.32,0,0,0-.88-.38.47.47,0,0,0-.38.12c-.26.26-.63.64-.13,2.28S136.1,91.19,136.22,91.94Zm25.12,160.31a23.78,23.78,0,0,1-3.91-3.16c-1-1-.13-2.9-.51-4.92s-.38-2.78,1.14-9.34a75.32,75.32,0,0,0,2.27-17.42c0-5.55-1.77-7.95-1.89-10.22s.12-4.8,0-8.33a39.81,39.81,0,0,1,.63-9.22c.63-4.16,1.39-9.84,1.89-17.29s.26-12.62-.63-16.54-2.14-6.43-1-10.6-.12-7.32-.25-10.73.13-3.15,1.64-5.3,3.53-12.37,4.8-16.28,1.51-4,1.51-4c9.34-1,12.5-3.28,14.39-4.55s1.64-1,5.05-1.51,6.69-1.26,12.75-4.55a145.41,145.41,0,0,0,13.51-9h1c3,0,5.68-.5,6.94-1.76S222.81,86,223.44,86h2.78c1.39,0,2.4-.76,1.89-1.89-.37-.76-3.53-.89-5.17-.89h-1s1.39-1,3.16-2.52,2.27-.88,4.79-2.27,1.9-2.53,1.9-2.53a70.89,70.89,0,0,1-9.6,2.4c-3.66.63-5.68,2.78-11.11,4.92s-11,2.65-20.07,5.31a55.86,55.86,0,0,0-15.4,7.19,36.93,36.93,0,0,0-5-.38c-9.85,0-13.51,5.05-14.65,4.55h0c-.88.5-3-1.14-4.41-2.28a10.38,10.38,0,0,1-1,1.39c-2.28,2.27-3.92,3.16-6.06,3.16s-3.92-1-6.19-3.28a9.92,9.92,0,0,1-1-1.39,48.11,48.11,0,0,0-4.42,3.78h0c-1.13-1-4.67-6.18-14.64-6.18a38.75,38.75,0,0,0-5,.38,57.74,57.74,0,0,0-15.4-7.32C88.51,85.63,83.08,85.25,77.65,83s-7.44-4.29-11-5a72.17,72.17,0,0,1-9.59-2.52s-.63,1,1.89,2.52,2.91.76,4.67,2.4,3.16,2.52,3.16,2.52h-1c-1.64,0-4.8.13-5.18.89-.5,1.13.51,1.89,1.9,1.89h2.77c.63,0,1.39,0,2.78,1.52C69.32,88.41,72,88.91,75,88.91h1A143.48,143.48,0,0,0,89.52,98c5.93,3.28,9.34,4.17,12.62,4.67s3.16.25,5,1.52,5,3.53,14.26,4.67c0,0,.38,0,1.52,4s3.15,14.13,4.67,16.28,1.77,2,1.64,5.3-1.51,6.57-.25,10.73-.13,6.69-1,10.6-1.14,9.09-.63,16.54a169.74,169.74,0,0,0,1.76,17.29,39.81,39.81,0,0,1,.63,9.22c-.12,3.53,0,6.06-.12,8.33s-1.89,4.54-1.89,10.22a69,69,0,0,0,2.14,17.42c1.52,6.69,1.39,7.32,1,9.47s.51,4-.5,4.92a25.05,25.05,0,0,1-3.92,3.16c-2,1.26-3.15,1.76-2.9,2.52s2,1.52,4.17,2.15a5.56,5.56,0,0,0,2,.25,7.52,7.52,0,0,0,3.92-1,5.77,5.77,0,0,1,3.53-1c1.64,0,2.15-.51,2.15-1.64s-.76-2.27-1.52-3.54a3.29,3.29,0,0,1-.5-3.15c.38-1.14.25-1.39.12-3s.13-8.71.13-12,1.26-5.68,2-8.59a28.49,28.49,0,0,0,.51-9.21,21.09,21.09,0,0,1,.12-5.68c.38-2.78,1.14-6.69,1.89-11.23a63.21,63.21,0,0,0,1.14-12c0-4.67.51-10.22,1-10.22s.88,5.55.88,10.22a55.28,55.28,0,0,0,1,12c.76,4.54,1.52,8.45,1.9,11.23s.5,2.9.12,5.68a28.53,28.53,0,0,0,.38,9.21c.76,2.91,1.9,5.31,1.9,8.59s.12,10.35,0,12-.26,1.89.12,3a3.05,3.05,0,0,1-.63,3.15c-.76,1.27-1.64,2.28-1.51,3.54s.63,1.64,2.14,1.64a5.8,5.8,0,0,1,3.54,1,8.49,8.49,0,0,0,3.91,1,11.62,11.62,0,0,0,2-.25c2.14-.63,3.91-1.27,4.16-2.15S163.49,253.64,161.34,252.25ZM101.76,114.79c3.28-.76,3-.88,5.3-.25a20.61,20.61,0,0,0,10.35.25c2-.38,3.29-1,4.67-.25l-.37-1.52c-.51-1.89-.89-2.77-1-3.28-8.84-1.13-12.12-3.28-14-4.67l-.26-.13a7.3,7.3,0,0,0-3.28-1c-.38,0-.76-.12-1.39-.12a18.09,18.09,0,0,1-4-.89c-1.51,0-3.28,0-5,.13-9.46.63-14.76,2.15-20.7,1.89s-8.45-1.38-12.11-.88a71.42,71.42,0,0,1-9.85,1s-.25,1.14,2.52,1.64,3-.25,5.31.51,3.78,1.26,3.78,1.26-5.43,1.77-5.55,3,1.13,1.51,2.4,1.13,2-.75,2.65-1,1.39-.37,3.15.38,4.8.26,8.08-1.13a137.65,137.65,0,0,0,15.78,3.78C95,115.93,98.35,115.55,101.76,114.79Zm136.71-9a67.44,67.44,0,0,1-9.85-1c-3.66-.63-6.19.63-12.12.76s-11.23-1.39-20.7-2c-1.77-.13-3.41-.13-5.05-.13a28.2,28.2,0,0,1-4,.76,5.93,5.93,0,0,1-1.39.12,4.81,4.81,0,0,0-3.15,1.14l-.25.13c-2,1.26-5.31,3.53-14,4.54-.13.5-.51,1.39-1,3.28a11.49,11.49,0,0,0-.38,1.52c1.39-.76,2.52-.13,4.67.25a20.73,20.73,0,0,0,10.35-.25c2.27-.51,1.89-.38,5.3.38s6.82,1.13,13.51.12a149.25,149.25,0,0,0,15.77-3.66c3.16,1.26,6.31,2,8.08,1.14s2.53-.63,3.16-.38,1.39.5,2.65,1,2.52.12,2.4-1-5.56-3-5.56-3,1.64-.51,3.79-1.26,2.4,0,5.3-.51C238.72,107,238.47,105.83,238.47,105.83ZM125.75,172.35A72.85,72.85,0,0,1,126,158c-.51,1-1,2-1.9,3.66a75.78,75.78,0,0,0-7.44,16.79c-2,6.94-3,9.34-5.3,13.38s-2.28,4-4.8,6.56-6.94,9.22-9.34,18.56S94.57,227.13,93.43,229s-1.51,2.78-2.9,3.16a20.49,20.49,0,0,1-5.43.51c-2.52-.13-3.28-.13-4.67-.64s-2.15-.75-2.52-.25a2,2,0,0,0,.88,2.78c1.39.63,1.26.5,1.77,1.39a7.86,7.86,0,0,0,3.15,2.77A7.49,7.49,0,0,0,87.37,240c1.14.12,1,.12,1.64,1a6.42,6.42,0,0,0,2.53,2.9c1.64,1.14,2.65,1.26,3.53.5s1.52-2,1.52-4.29.12-3.28.88-4.42,2.53-5,4.17-8.58,2.65-5.68,5.42-8.71,5.31-4.67,7.07-9.09,1.64-5.3,3.16-7.07a13.85,13.85,0,0,0,2.4-3.78c.63-1.26,1.13-1.64,3.15-3.91,1.39-1.52,3.16-3.67,4.67-5.69A135.44,135.44,0,0,1,125.75,172.35Zm81.54,60.21c-1.39.5-2.15.5-4.67.5a15.81,15.81,0,0,1-5.43-.63c-1.39-.38-1.77-1.26-2.9-3.15s-1.39-2.65-3.79-12.12-6.69-16.16-9.21-18.68-2.53-2.53-4.8-6.57-3.28-6.43-5.3-13.5a74.45,74.45,0,0,0-7.32-16.92c-.89-1.51-1.39-2.65-1.9-3.66a74.51,74.51,0,0,1,.13,14.39c-.38,5.81-.88,11.24-1.77,16.79,1.52,2.15,3.28,4.29,4.55,5.81,2,2.27,2.52,2.65,3.15,3.91a13.77,13.77,0,0,0,2.4,3.79c1.51,1.76,1.51,2.65,3.16,7.19s4.29,6.19,6.94,9.09a29.33,29.33,0,0,1,5.3,8.71c1.64,3.66,3.41,7.57,4.16,8.71s.76,2.15.89,4.42a6.26,6.26,0,0,0,1.51,4.29c.89.76,1.9.63,3.54-.51a6.81,6.81,0,0,0,2.52-2.77c.51-.89.38-.89,1.64-1a7.82,7.82,0,0,0,3.66-1.26,8.89,8.89,0,0,0,3.16-2.78c.5-.89.38-.76,1.77-1.39a2,2,0,0,0,.88-2.78C209.43,231.93,208.68,232.18,207.29,232.56Z" transform="translate(-28.69 -27.96)"/><path class="cls-2" d="M150.74,256.42c-1.64,0-2.15-.51-2.15-1.65s.76-2.27,1.52-3.53,1-2,.63-3.16-.25-1.38-.13-3,0-8.71,0-12-1.13-5.68-1.89-8.58a25.19,25.19,0,0,1-.38-9.21c.38-2.91.13-2.91-.13-5.68s-1.13-6.69-1.89-11.24a53.92,53.92,0,0,1-1-12c.13-4.67-.25-10.22-.88-10.22s-1.14,5.55-1,10.22a63,63,0,0,1-1.14,12c-.76,4.55-1.64,8.46-1.89,11.24a14.3,14.3,0,0,0-.13,5.68,28.59,28.59,0,0,1-.5,9.21c-.76,2.9-1.9,5.3-2,8.58s-.26,10.35-.13,12,.25,1.89-.13,3a3.31,3.31,0,0,0,.51,3.16c.76,1.26,1.51,2.27,1.51,3.53s-.63,1.65-2.14,1.65a5.8,5.8,0,0,0-3.54,1,7.11,7.11,0,0,0-1,.5,114.42,114.42,0,0,0,11.49.63,109.36,109.36,0,0,0,11.23-.5,2.63,2.63,0,0,1-1-.51A6.35,6.35,0,0,0,150.74,256.42Z" transform="translate(-28.69 -27.96)"/><path class="cls-2" d="M144.93,29.59A114.29,114.29,0,0,0,53.42,74.78c.25.12.38.12.63.25a16,16,0,0,1,3.28,1.64.13.13,0,0,1,.13.13,62.68,62.68,0,0,0,9.34,2.39c3.66.76,5.68,2.78,11,5s11,2.78,20.07,5.43A53.77,53.77,0,0,1,113.25,97a37.07,37.07,0,0,1,5-.38c9.84,0,13.5,5.18,14.64,5.18h0c1,0,3.16-1.64,4.42-2.78a8.87,8.87,0,0,0,1,1.39c2.14,2.27,4,3.28,6.18,3.28s3.92-.88,6.06-3.15a4.83,4.83,0,0,0,1-1.39c1.39,1.26,3.54,2.78,4.42,2.78h0c1.14,0,4.8-5.18,14.64-5a38.36,38.36,0,0,1,5,.37,55.68,55.68,0,0,1,15.4-7.19c9.09-2.65,14.64-3,20.07-5.3s7.45-4.29,11.11-4.92a67.51,67.51,0,0,0,9.59-2.4s.63,1-1.89,2.52-2.9.76-4.8,2.27-3.15,2.53-3.15,2.53h1c1.64,0,4.79.12,5.17.88.51,1.14-.5,1.9-1.89,1.9h-2.78c-.63,0-1.39,0-2.78,1.51-1.26,1.26-3.91,1.77-6.94,1.77h-1a144.63,144.63,0,0,1-13.5,9c-5.94,3.28-9.35,4-12.75,4.54s-3.16.26-5.05,1.52-5,3.53-14.39,4.54c0,0-.38,0-1.52,4s-3.15,14.14-4.79,16.28-1.77,1.9-1.64,5.31,1.38,6.56.25,10.73.12,6.69,1,10.6,1,9.09.63,16.53-1.26,13.13-1.89,17.3-.89,5.68-.64,9.21,0,6.06,0,8.33,1.77,4.55,1.9,10.23a76.21,76.21,0,0,1-2.27,17.42c-1.52,6.69-1.39,7.32-1.14,9.34s-.51,4,.5,4.92a19.28,19.28,0,0,0,3.92,3.16c2,1.26,3.15,1.76,2.77,2.52a2.13,2.13,0,0,1-.75.76A114.56,114.56,0,0,0,144.93,29.59Zm8.46,60.71c-.51,1.64-.51,2.15-.76,2.91-.12.5-.38.75-.63.75s-.25-.12-.38-.25c0,.38-.12.76-.12,1-.26,2.27-.51,3.28-1.77,4.67-2,2-3.41,2.78-5.18,2.78s-3.28-.76-5.3-2.91c-1.26-1.26-1.51-2.39-1.77-4.67,0-.25-.12-.63-.12-1-.13.13-.25.26-.38.26s-.51-.26-.63-.76a19.6,19.6,0,0,0-.76-2.9c-.5-1.64-.13-2.15.13-2.28a.47.47,0,0,1,.38-.12,1.32,1.32,0,0,1,.88.38c0-1.52-.13-3.29-.13-5,0-5.3,6.19-6.19,7.58-6.19s7.57.89,7.57,6.19c0,1.89,0,3.53-.13,5a1.36,1.36,0,0,1,.89-.38.49.49,0,0,1,.38.12C153.52,88.28,153.89,88.66,153.39,90.3Zm55.66,146.05c-1.38.63-1.26.5-1.76,1.38a7.84,7.84,0,0,1-3.16,2.78,7.36,7.36,0,0,1-3.66,1.26c-1.13.13-1,.13-1.64,1a7,7,0,0,1-2.52,2.78c-1.65,1.14-2.65,1.26-3.54.51s-1.51-2-1.51-4.3-.13-3.28-.89-4.41-2.39-5.05-4.16-8.71a29.33,29.33,0,0,0-5.3-8.71c-2.65-3-5.31-4.67-6.95-9.09s-1.64-5.3-3.15-7.2a13.61,13.61,0,0,1-2.4-3.78c-.63-1.27-1.14-1.64-3.16-3.92a63.08,63.08,0,0,1-4.54-5.8c.88-5.43,1.39-11,1.77-16.79a86.81,86.81,0,0,0-.13-14.39,35.72,35.72,0,0,0,1.89,3.66,80.53,80.53,0,0,1,7.33,16.91c1.89,7,3,9.47,5.3,13.51s2.14,4,4.79,6.56,7,9.22,9.22,18.69,2.52,10.22,3.79,12.11,1.51,2.91,2.9,3.16a19.24,19.24,0,0,0,5.43.63,19.93,19.93,0,0,0,4.67-.5c1.38-.51,2.14-.76,2.52-.26C210.32,234.07,210.44,235.71,209.05,236.35Zm27-127.62c-2.91.51-3-.25-5.3.51L227,110.5s5.43,1.77,5.55,3-1.13,1.51-2.4,1-2-.76-2.65-1-1.38-.51-3.15.38-4.8.12-8.08-1.14a149.72,149.72,0,0,1-15.78,3.66,35.16,35.16,0,0,1-13.5-.13c-3.29-.75-3-.88-5.31-.37a20.83,20.83,0,0,1-10.35.25c-2-.38-3.28-1-4.67-.25l.38-1.52c.51-1.89.89-2.78,1-3.28,8.84-1,12.12-3.16,14-4.54l.25-.13a5.41,5.41,0,0,1,3.16-1.14c.38,0,.76-.12,1.39-.12a28.46,28.46,0,0,0,4-.76c1.64,0,3.28,0,5.05.13,9.46.75,14.77,2.27,20.7,2s8.46-1.39,12.12-.76a71.13,71.13,0,0,0,9.84,1C238.72,107,239,108.23,236.07,108.73Z" transform="translate(-28.69 -27.96)"/><path class="cls-7" d="M93.18,245.31a5.29,5.29,0,0,1-1.39-.76,6.33,6.33,0,0,1-2.52-2.9c-.51-1-.38-1-1.64-1A7.89,7.89,0,0,1,84,239.38a8.93,8.93,0,0,1-3.15-2.78c-.51-.89-.38-.76-1.77-1.39a2,2,0,0,1-.88-2.78c.38-.5,1.13-.25,2.52.26s2.15.5,4.67.63a21.08,21.08,0,0,0,5.43-.51c1.39-.25,1.77-1.26,2.9-3.15s1.39-2.65,3.79-12.12,6.82-16,9.34-18.56,2.53-2.52,4.8-6.56,3.28-6.44,5.3-13.38a75.3,75.3,0,0,1,7.45-16.79c.63-1,1-1.89,1.39-2.52,0-.13,0-.26.12-.26l.38-.75a1.53,1.53,0,0,1-.13.75h1.27a21.28,21.28,0,0,1,.5-3c.88-3.91,2.27-6.43,1-10.6s.13-7.32.25-10.73-.12-3.15-1.64-5.3-3.53-12.37-4.67-16.28-1.51-4-1.51-4c-9.34-1.14-12.37-3.41-14.27-4.67s-1.64-1-5-1.52S95.33,102,89.39,98.63a135,135,0,0,1-13.5-9.09h-1c-3,0-5.68-.5-6.95-1.76s-2.14-1.52-2.77-1.52H62.38c-1.39,0-2.4-.75-1.89-1.89.38-.76,3.53-.88,5.17-.88h1s-1.39-1-3.15-2.53-2.15-.88-4.67-2.4c-1.65-1-1.9-1.76-1.9-2.14l-3-1.52c-.25-.12-.63-.25-.88-.38A114.39,114.39,0,0,0,93.18,245.31ZM64.78,112.52c-1.77-.89-2.53-.63-3.16-.38s-1.39.5-2.65,1-2.52.13-2.4-1.14,5.56-3,5.56-3-1.64-.5-3.79-1.26-2.4,0-5.3-.5-2.53-1.64-2.53-1.64a67.44,67.44,0,0,0,9.85-1c3.66-.64,6.19.63,12.12.88s11.23-1.26,20.7-1.89c1.77-.13,3.41-.13,5-.13,1.51.38,2.78.63,4,.88a5.49,5.49,0,0,0,1.39.13c1.89.25,1.89.25,3.15,1.14l.25.12c2,1.26,5.18,3.54,14,4.67.12.51.5,1.39,1,3.28a11.49,11.49,0,0,1,.38,1.52c-1.38-.76-2.52-.13-4.67.25a20.61,20.61,0,0,1-10.35-.25c-2.27-.51-1.89-.38-5.3.25s-6.81,1.14-13.5.13a136.74,136.74,0,0,1-15.78-3.79C69.57,112.64,66.55,113.4,64.78,112.52Z" transform="translate(-28.69 -27.96)"/><path class="cls-2" d="M130.79,245.18c.38-2.14.38-2.78-1-9.47s-2.27-11.73-2.14-17.41,1.89-8,1.89-10.23,0-4.8.13-8.33a40.29,40.29,0,0,0-.63-9.21,169.79,169.79,0,0,1-1.77-17.3,85.63,85.63,0,0,1,.13-13h-1.27a88.65,88.65,0,0,0-.12,13.13c.25,5.81.88,11.23,1.64,16.79a47.8,47.8,0,0,1-4.67,5.68c-2,2.27-2.53,2.65-3.16,3.91a17.88,17.88,0,0,1-2.4,3.79c-1.51,1.76-1.51,2.65-3.15,7.07s-4.29,6.05-7.07,9.08a32.72,32.72,0,0,0-5.43,8.71C100,232.05,98.35,236,97.6,237s-.76,2.14-.89,4.41a6.22,6.22,0,0,1-1.51,4.3,1.93,1.93,0,0,1-1.64.38v.12a109.79,109.79,0,0,0,30.54,10.1c-.37-.25-.63-.51-.63-.76-.25-.76.76-1.26,2.91-2.52a23.78,23.78,0,0,0,3.91-3.16C131.3,249.22,130.42,247.33,130.79,245.18Z" transform="translate(-28.69 -27.96)"/><path id="Vitruvian_man-3" data-name="Vitruvian man" class="cls-8" d="M136.6,91.94c.13.51.38.76.63.76s.25-.13.38-.25c0,.38.13.76.13,1,.25,2.27.5,3.28,1.76,4.67,2,2,3.41,2.9,5.31,2.9s3.15-.76,5.17-2.78c1.26-1.26,1.52-2.39,1.77-4.67,0-.25.12-.63.12-1,.13.13.26.26.38.26s.51-.26.63-.76a21,21,0,0,1,.76-2.9c.51-1.64.13-2.15-.12-2.28a.49.49,0,0,0-.38-.12,1.34,1.34,0,0,0-.89.38c.13-1.52.13-3.29.13-5.05,0-5.3-6.19-6.19-7.57-6.19s-7.58.76-7.58,6.19c0,1.89,0,3.53.13,5.05a1.32,1.32,0,0,0-.89-.38.46.46,0,0,0-.37.12c-.26.26-.64.64-.13,2.28S136.47,91.19,136.6,91.94Zm25.12,160.31a23.78,23.78,0,0,1-3.91-3.16c-1-1-.13-2.9-.51-4.92s-.38-2.78,1.14-9.34a75.32,75.32,0,0,0,2.27-17.42c0-5.55-1.77-7.95-1.89-10.22s.12-4.8,0-8.33a39.81,39.81,0,0,1,.63-9.22c.63-4.16,1.39-9.84,1.89-17.29s.25-12.62-.63-16.54-2.15-6.43-1-10.6-.13-7.32-.25-10.73.12-3.15,1.64-5.3,3.53-12.37,4.8-16.28,1.51-4,1.51-4c9.34-1,12.5-3.28,14.39-4.55s1.64-1,5.05-1.51,6.69-1.26,12.75-4.55a144.63,144.63,0,0,0,13.5-9h1c3,0,5.68-.5,7-1.76S223.19,86,223.82,86h2.78c1.39,0,2.4-.76,1.89-1.89-.38-.76-3.53-.89-5.17-.89h-1s1.39-1,3.15-2.52,2.28-.88,4.8-2.27,1.89-2.53,1.89-2.53a70.36,70.36,0,0,1-9.59,2.4c-3.66.63-5.68,2.78-11.11,4.92s-11,2.65-20.07,5.31A55.68,55.68,0,0,0,176,95.73a37,37,0,0,0-5-.38c-9.84,0-13.5,5.05-14.64,5.05h0c-.88,0-3-1.64-4.42-2.78a8.87,8.87,0,0,1-1,1.39c-2.27,2.27-3.91,3.16-6.05,3.16s-3.92-1-6.19-3.28a9.92,9.92,0,0,1-1-1.39c-1.51,1.39-3.66,2.9-4.54,2.9h0c-1.14,0-4.67-5.17-14.65-5.17a38.34,38.34,0,0,0-5,.37A58.3,58.3,0,0,0,98,88.28c-9.09-2.65-14.65-3.15-20.07-5.43s-7.45-4.29-11-5a71.06,71.06,0,0,1-9.59-2.53s-.63,1,1.89,2.53,2.91.75,4.67,2.39,3.16,2.53,3.16,2.53H66c-1.64,0-4.8.12-5.17.88-.51,1.14.5,1.9,1.89,1.9h2.78c.63,0,1.38,0,2.77,1.51,1.26,1.26,3.92,1.77,7,1.77h1a143.48,143.48,0,0,0,13.51,9.09c5.93,3.28,9.34,4.16,12.62,4.67s3.16.25,5,1.51,5,3.54,14.27,4.67c0,0,.37,0,1.51,4s3.16,14.14,4.67,16.28,1.77,2,1.64,5.31-1.51,6.56-.25,10.72-.13,6.69-1,10.61-1.14,9.09-.63,16.53a166.94,166.94,0,0,0,1.77,17.3,40.29,40.29,0,0,1,.63,9.21c-.13,3.53,0,6.06-.13,8.33S128,211.61,128,217.29a69,69,0,0,0,2.14,17.41c1.52,6.69,1.39,7.33,1,9.47s.51,4-.5,4.92a24.23,24.23,0,0,1-3.91,3.16c-2,1.26-3.16,1.77-2.91,2.52s2,1.52,4.17,2.15a5.61,5.61,0,0,0,2,.25,7.51,7.51,0,0,0,3.91-1,5.84,5.84,0,0,1,3.53-1c1.65,0,2.15-.5,2.15-1.64s-.76-2.27-1.51-3.53a3.28,3.28,0,0,1-.51-3.16c.38-1.13.25-1.39.13-3s.12-8.71.12-12,1.27-5.68,2-8.58a28.55,28.55,0,0,0,.51-9.22,21.5,21.5,0,0,1,.12-5.68c.38-2.77,1.14-6.69,1.9-11.23a63.85,63.85,0,0,0,1.13-12c0-4.67.51-10.23,1-10.23s.89,5.56.89,10.23a53.92,53.92,0,0,0,1,12c.75,4.54,1.51,8.46,1.89,11.23s.5,2.91.13,5.68a28.3,28.3,0,0,0,.37,9.22c.76,2.9,1.9,5.3,1.9,8.58s.12,10.35,0,12-.25,1.9.12,3a3,3,0,0,1-.63,3.16c-.75,1.26-1.64,2.27-1.51,3.53s.63,1.64,2.14,1.64a5.85,5.85,0,0,1,3.54,1,8.4,8.4,0,0,0,3.91,1,10.73,10.73,0,0,0,2-.25c2.15-.63,3.91-1.26,4.17-2.15S163.74,253.64,161.72,252.25ZM102,114.79c3.28-.76,3-.88,5.3-.25a20.58,20.58,0,0,0,10.35.25c2-.38,3.28-1,4.67-.25L122,113c-.51-1.89-.88-2.77-1-3.28-8.84-1.13-12.12-3.28-14-4.67l-.25-.13a5.34,5.34,0,0,0-3.16-1.13c-.38,0-.76-.13-1.39-.13a18,18,0,0,1-4-.88c-1.51,0-3.28,0-5,.12-9.46.64-14.77,2.15-20.7,1.9s-8.46-1.39-12.12-.89a68.18,68.18,0,0,1-9.84,1s-.25,1.14,2.52,1.65,3-.26,5.3.5S62,108.35,62,108.35s-5.43,1.77-5.55,3,1.13,1.52,2.4,1.14,2-.76,2.65-1,1.38-.38,3.15.38,4.8.25,8.08-1.14a136.74,136.74,0,0,0,15.78,3.79C95.33,115.93,98.73,115.55,102,114.79Zm136.82-9a67.45,67.45,0,0,1-9.84-1c-3.66-.63-6.19.63-12.12.76s-11.23-1.39-20.7-2c-1.77-.13-3.41-.13-5.05-.13a28.2,28.2,0,0,1-4,.76,5.93,5.93,0,0,1-1.39.12,4.81,4.81,0,0,0-3.15,1.14l-.26.13c-2,1.26-5.3,3.53-14,4.54-.12.5-.5,1.39-1,3.28a13.62,13.62,0,0,0-.37,1.52c1.38-.76,2.52-.13,4.67.25a20.73,20.73,0,0,0,10.35-.25c2.27-.51,1.89-.38,5.3.38s6.81,1.13,13.5.12a149.72,149.72,0,0,0,15.78-3.66c3.16,1.26,6.31,2,8.08,1.14s2.53-.63,3.16-.38,1.38.5,2.65,1,2.52.12,2.4-1-5.56-3-5.56-3,1.64-.51,3.79-1.26,2.4,0,5.3-.51C239.1,107,238.84,105.83,238.84,105.83ZM126.12,172.35a73.5,73.5,0,0,1,.26-14.39c-.51,1-1,2-1.9,3.66A75.78,75.78,0,0,0,117,178.41c-2,6.94-3,9.34-5.31,13.38s-2.27,4-4.79,6.56-6.94,9.22-9.34,18.56S95,227.13,93.81,229s-1.51,2.78-2.9,3.16a20.54,20.54,0,0,1-5.43.51c-2.53-.13-3.28-.13-4.67-.64s-2.15-.75-2.53-.25a2,2,0,0,0,.89,2.78c1.39.63,1.26.5,1.77,1.39a7.79,7.79,0,0,0,3.15,2.77A7.49,7.49,0,0,0,87.75,240c1.14.12,1,.12,1.64,1a6.42,6.42,0,0,0,2.53,2.9c1.64,1.14,2.65,1.26,3.53.5s1.52-2,1.52-4.29.12-3.28.88-4.42,2.52-5,4.17-8.58,2.65-5.68,5.42-8.71,5.3-4.67,7.07-9.09,1.64-5.3,3.16-7.07a14.1,14.1,0,0,0,2.4-3.78c.63-1.26,1.13-1.64,3.15-3.91,1.39-1.52,3.16-3.67,4.67-5.69A115.26,115.26,0,0,1,126.12,172.35Zm81.55,60.21c-1.39.5-2.15.5-4.67.5a15.81,15.81,0,0,1-5.43-.63c-1.39-.38-1.77-1.26-2.91-3.15s-1.38-2.65-3.78-12.12-6.69-16.16-9.22-18.68-2.52-2.53-4.79-6.57-3.28-6.43-5.3-13.5a74,74,0,0,0-7.33-16.92c-.88-1.51-1.38-2.65-1.89-3.66a74.51,74.51,0,0,1,.13,14.39c-.38,5.81-.89,11.24-1.77,16.79,1.51,2.15,3.28,4.29,4.54,5.81,2,2.27,2.53,2.65,3.16,3.91a13.77,13.77,0,0,0,2.4,3.79c1.51,1.76,1.51,2.65,3.15,7.19s4.3,6.19,6.95,9.09a29.33,29.33,0,0,1,5.3,8.71c1.64,3.66,3.41,7.57,4.16,8.71s.76,2.15.89,4.42a6.21,6.21,0,0,0,1.51,4.29c.89.76,1.89.63,3.54-.51a6.81,6.81,0,0,0,2.52-2.77c.51-.89.38-.89,1.64-1a7.86,7.86,0,0,0,3.66-1.26,8.89,8.89,0,0,0,3.16-2.78c.5-.89.38-.76,1.76-1.39a2,2,0,0,0,.89-2.78C209.81,231.93,208.93,232.18,207.67,232.56Z" transform="translate(-28.69 -27.96)"/><path id="Vitruvian_man-4" data-name="Vitruvian man" class="cls-9" d="M136.6,91.94c.13.51.38.76.63.76s.25-.13.38-.25c0,.38.13.76.13,1,.25,2.27.5,3.28,1.76,4.67,2,2,3.41,2.9,5.31,2.9s3.15-.76,5.17-2.78c1.26-1.26,1.52-2.39,1.77-4.67,0-.25.12-.63.12-1,.13.13.26.26.38.26s.51-.26.63-.76a21,21,0,0,1,.76-2.9c.51-1.64.13-2.15-.12-2.28a.49.49,0,0,0-.38-.12,1.34,1.34,0,0,0-.89.38c.13-1.52.13-3.29.13-5.05,0-5.3-6.19-6.19-7.57-6.19s-7.58.76-7.58,6.19c0,1.89,0,3.53.13,5.05a1.32,1.32,0,0,0-.89-.38.46.46,0,0,0-.37.12c-.26.26-.64.64-.13,2.28S136.47,91.19,136.6,91.94Zm25.12,160.31a23.78,23.78,0,0,1-3.91-3.16c-1-1-.13-2.9-.51-4.92s-.38-2.78,1.14-9.34a75.32,75.32,0,0,0,2.27-17.42c0-5.55-1.77-7.95-1.89-10.22s.12-4.8,0-8.33a39.81,39.81,0,0,1,.63-9.22c.63-4.16,1.39-9.84,1.89-17.29s.25-12.62-.63-16.54-2.15-6.43-1-10.6-.13-7.32-.25-10.73.12-3.15,1.64-5.3,3.53-12.37,4.8-16.28,1.51-4,1.51-4c9.34-1,12.5-3.28,14.39-4.55s1.64-1,5.05-1.51,6.69-1.26,12.75-4.55a144.63,144.63,0,0,0,13.5-9h1c3,0,5.68-.5,7-1.76S223.19,86,223.82,86h2.78c1.39,0,2.4-.76,1.89-1.89-.38-.76-3.53-.89-5.17-.89h-1s1.39-1,3.15-2.52,2.28-.88,4.8-2.27,1.89-2.53,1.89-2.53a70.36,70.36,0,0,1-9.59,2.4c-3.66.63-5.68,2.78-11.11,4.92s-11,2.65-20.07,5.31A55.68,55.68,0,0,0,176,95.73a37,37,0,0,0-5-.38c-9.84,0-13.5,5.05-14.64,5.05h0c-.88,0-3-1.64-4.42-2.78a8.87,8.87,0,0,1-1,1.39c-2.27,2.27-3.91,3.16-6.05,3.16s-3.92-1-6.19-3.28a9.92,9.92,0,0,1-1-1.39c-1.51,1.39-3.66,2.9-4.54,2.9h0c-1.14,0-4.67-5.17-14.65-5.17a38.34,38.34,0,0,0-5,.37A58.3,58.3,0,0,0,98,88.28c-9.09-2.65-14.65-3.15-20.07-5.43s-7.45-4.29-11-5a71.06,71.06,0,0,1-9.59-2.53s-.63,1,1.89,2.53,2.91.75,4.67,2.39,3.16,2.53,3.16,2.53H66c-1.64,0-4.8.12-5.17.88-.51,1.14.5,1.9,1.89,1.9h2.78c.63,0,1.38,0,2.77,1.51,1.26,1.26,3.92,1.77,7,1.77h1a143.48,143.48,0,0,0,13.51,9.09c5.93,3.28,9.34,4.16,12.62,4.67s3.16.25,5,1.51,5,3.54,14.27,4.67c0,0,.37,0,1.51,4s3.16,14.14,4.67,16.28,1.77,2,1.64,5.31-1.51,6.56-.25,10.72-.13,6.69-1,10.61-1.14,9.09-.63,16.53a166.94,166.94,0,0,0,1.77,17.3,40.29,40.29,0,0,1,.63,9.21c-.13,3.53,0,6.06-.13,8.33S128,211.61,128,217.29a69,69,0,0,0,2.14,17.41c1.52,6.69,1.39,7.33,1,9.47s.51,4-.5,4.92a24.23,24.23,0,0,1-3.91,3.16c-2,1.26-3.16,1.77-2.91,2.52s2,1.52,4.17,2.15a5.61,5.61,0,0,0,2,.25,7.51,7.51,0,0,0,3.91-1,5.84,5.84,0,0,1,3.53-1c1.65,0,2.15-.5,2.15-1.64s-.76-2.27-1.51-3.53a3.28,3.28,0,0,1-.51-3.16c.38-1.13.25-1.39.13-3s.12-8.71.12-12,1.27-5.68,2-8.58a28.55,28.55,0,0,0,.51-9.22,21.5,21.5,0,0,1,.12-5.68c.38-2.77,1.14-6.69,1.9-11.23a63.85,63.85,0,0,0,1.13-12c0-4.67.51-10.23,1-10.23s.89,5.56.89,10.23a53.92,53.92,0,0,0,1,12c.75,4.54,1.51,8.46,1.89,11.23s.5,2.91.13,5.68a28.3,28.3,0,0,0,.37,9.22c.76,2.9,1.9,5.3,1.9,8.58s.12,10.35,0,12-.25,1.9.12,3a3,3,0,0,1-.63,3.16c-.75,1.26-1.64,2.27-1.51,3.53s.63,1.64,2.14,1.64a5.85,5.85,0,0,1,3.54,1,8.4,8.4,0,0,0,3.91,1,10.73,10.73,0,0,0,2-.25c2.15-.63,3.91-1.26,4.17-2.15S163.74,253.64,161.72,252.25ZM102,114.79c3.28-.76,3-.88,5.3-.25a20.58,20.58,0,0,0,10.35.25c2-.38,3.28-1,4.67-.25L122,113c-.51-1.89-.88-2.77-1-3.28-8.84-1.13-12.12-3.28-14-4.67l-.25-.13a5.34,5.34,0,0,0-3.16-1.13c-.38,0-.76-.13-1.39-.13a18,18,0,0,1-4-.88c-1.51,0-3.28,0-5,.12-9.46.64-14.77,2.15-20.7,1.9s-8.46-1.39-12.12-.89a68.18,68.18,0,0,1-9.84,1s-.25,1.14,2.52,1.65,3-.26,5.3.5S62,108.35,62,108.35s-5.43,1.77-5.55,3,1.13,1.52,2.4,1.14,2-.76,2.65-1,1.38-.38,3.15.38,4.8.25,8.08-1.14a136.74,136.74,0,0,0,15.78,3.79C95.33,115.93,98.73,115.55,102,114.79Zm136.82-9a67.45,67.45,0,0,1-9.84-1c-3.66-.63-6.19.63-12.12.76s-11.23-1.39-20.7-2c-1.77-.13-3.41-.13-5.05-.13a28.2,28.2,0,0,1-4,.76,5.93,5.93,0,0,1-1.39.12,4.81,4.81,0,0,0-3.15,1.14l-.26.13c-2,1.26-5.3,3.53-14,4.54-.12.5-.5,1.39-1,3.28a13.62,13.62,0,0,0-.37,1.52c1.38-.76,2.52-.13,4.67.25a20.73,20.73,0,0,0,10.35-.25c2.27-.51,1.89-.38,5.3.38s6.81,1.13,13.5.12a149.72,149.72,0,0,0,15.78-3.66c3.16,1.26,6.31,2,8.08,1.14s2.53-.63,3.16-.38,1.38.5,2.65,1,2.52.12,2.4-1-5.56-3-5.56-3,1.64-.51,3.79-1.26,2.4,0,5.3-.51C239.1,107,238.84,105.83,238.84,105.83ZM126.12,172.35a73.5,73.5,0,0,1,.26-14.39c-.51,1-1,2-1.9,3.66A75.78,75.78,0,0,0,117,178.41c-2,6.94-3,9.34-5.31,13.38s-2.27,4-4.79,6.56-6.94,9.22-9.34,18.56S95,227.13,93.81,229s-1.51,2.78-2.9,3.16a20.54,20.54,0,0,1-5.43.51c-2.53-.13-3.28-.13-4.67-.64s-2.15-.75-2.53-.25a2,2,0,0,0,.89,2.78c1.39.63,1.26.5,1.77,1.39a7.79,7.79,0,0,0,3.15,2.77A7.49,7.49,0,0,0,87.75,240c1.14.12,1,.12,1.64,1a6.42,6.42,0,0,0,2.53,2.9c1.64,1.14,2.65,1.26,3.53.5s1.52-2,1.52-4.29.12-3.28.88-4.42,2.52-5,4.17-8.58,2.65-5.68,5.42-8.71,5.3-4.67,7.07-9.09,1.64-5.3,3.16-7.07a14.1,14.1,0,0,0,2.4-3.78c.63-1.26,1.13-1.64,3.15-3.91,1.39-1.52,3.16-3.67,4.67-5.69A115.26,115.26,0,0,1,126.12,172.35Zm81.55,60.21c-1.39.5-2.15.5-4.67.5a15.81,15.81,0,0,1-5.43-.63c-1.39-.38-1.77-1.26-2.91-3.15s-1.38-2.65-3.78-12.12-6.69-16.16-9.22-18.68-2.52-2.53-4.79-6.57-3.28-6.43-5.3-13.5a74,74,0,0,0-7.33-16.92c-.88-1.51-1.38-2.65-1.89-3.66a74.51,74.51,0,0,1,.13,14.39c-.38,5.81-.89,11.24-1.77,16.79,1.51,2.15,3.28,4.29,4.54,5.81,2,2.27,2.53,2.65,3.16,3.91a13.77,13.77,0,0,0,2.4,3.79c1.51,1.76,1.51,2.65,3.15,7.19s4.3,6.19,6.95,9.09a29.33,29.33,0,0,1,5.3,8.71c1.64,3.66,3.41,7.57,4.16,8.71s.76,2.15.89,4.42a6.21,6.21,0,0,0,1.51,4.29c.89.76,1.89.63,3.54-.51a6.81,6.81,0,0,0,2.52-2.77c.51-.89.38-.89,1.64-1a7.86,7.86,0,0,0,3.66-1.26,8.89,8.89,0,0,0,3.16-2.78c.5-.89.38-.76,1.76-1.39a2,2,0,0,0,.89-2.78C209.81,231.93,208.93,232.18,207.67,232.56Z" transform="translate(-28.69 -27.96)"/><circle class="cls-10" cx="115.99" cy="115.99" r="114.49"/></svg>