<svg width="360" height="119" viewBox="0 0 360 119" fill="none" xmlns="http://www.w3.org/2000/svg">
<path d="M0 119V0H49.7301C54.9943 0 59.8105 1.12127 64.1787 3.36382C68.547 5.49421 72.3549 8.40951 75.6034 12.1097C78.8519 15.6977 81.3714 19.7903 83.1631 24.3875C84.9558 28.8725 85.8517 33.4698 85.8517 38.1791C85.8517 44.6824 84.3959 50.9054 81.4834 56.8481C78.5709 62.6787 74.4836 67.4441 69.2189 71.1442C63.9547 74.7323 57.7945 76.5262 50.7381 76.5262H15.1207V110.345L0 119ZM15.1207 66.2896H50.7381C54.8823 66.2896 59.3946 63.7639 62.4187 61.5213C65.5549 59.2788 68.6707 56.419 70.3507 52.6067C72.1424 48.7945 73.9278 43.668 73.9278 39.1829C73.9278 36.9133 73.708 33.5175 72.9947 30.8384C72.2274 27.9586 70.9282 25.8101 69.8841 23.8933C67.868 20.081 63.1266 15.9688 59.8784 13.8384C56.6303 11.708 52.8103 10.5732 48.8901 10.5732H15.1207V66.2896Z" fill="#463DA6"/>
<path d="M170.256 117.547C163.617 117.547 157.54 116.366 152.026 114.002C146.625 111.527 141.899 108.207 137.848 104.043C133.909 99.7668 130.815 94.871 128.564 89.3574C126.426 83.8427 125.357 77.9908 125.357 71.8013C125.357 63.4736 127.27 55.8774 131.096 49.0127C134.922 42.148 140.211 36.6337 146.962 32.4699C153.827 28.3061 161.647 26.2241 170.425 26.2241C179.314 26.2241 187.022 28.3623 193.549 32.6387C200.188 36.8026 205.308 42.3168 208.909 49.1816C212.623 55.9337 214.479 63.2486 214.479 71.1261C214.479 72.2515 214.423 73.3768 214.311 74.5023C214.311 75.515 214.254 76.3028 214.142 76.8655H141.055C141.505 82.605 143.08 87.7247 145.781 92.2266C148.594 96.6155 152.195 100.105 156.584 102.693C160.972 105.168 165.698 106.406 170.762 106.406C176.164 106.406 181.227 105.055 185.953 102.355C190.792 99.6538 197.588 91.7197 199.388 87.3308L210.483 93.965C207.994 98.3643 203.845 103.368 200.132 106.744C196.419 110.12 191.974 112.764 186.797 114.678C181.734 116.591 176.22 117.547 170.256 117.547ZM140.548 66.5684H200.638C200.188 60.8291 198.557 55.7649 195.743 51.376C192.93 46.987 189.329 43.5547 184.941 41.0789C180.552 38.6031 175.713 37.3652 170.425 37.3652C165.248 37.3652 160.466 38.6031 156.077 41.0789C151.689 43.5547 148.088 46.987 145.275 51.376C142.574 55.7649 140.998 60.8291 140.548 66.5684Z" fill="#463DA6"/>
<path d="M315.777 117.547C309.138 117.547 303.061 116.366 297.547 114.002C292.146 111.527 287.42 108.207 283.369 104.043C279.43 99.7668 276.336 94.871 274.085 89.3574C271.947 83.8427 270.878 77.9908 270.878 71.8013C270.878 63.4736 272.791 55.8774 276.617 49.0127C280.443 42.148 285.732 36.6337 292.483 32.4699C299.348 28.3061 307.168 26.2241 315.946 26.2241C324.835 26.2241 332.543 28.3623 339.07 32.6387C345.709 36.8026 350.829 42.3168 354.43 49.1816C358.144 55.9337 360 63.2486 360 71.1261C360 72.2515 359.944 73.3768 359.832 74.5023C359.832 75.515 359.775 76.3028 359.663 76.8655H286.576C287.026 82.605 288.601 87.7247 291.302 92.2266C294.115 96.6155 297.716 100.105 302.105 102.693C306.493 105.168 311.219 106.406 316.283 106.406C321.685 106.406 326.748 105.055 331.474 102.355C336.313 99.6538 343.062 91.6679 344.862 87.279L356.008 94.0686C353.209 98.3124 349.479 103.368 345.653 106.744C341.94 110.12 337.495 112.764 332.318 114.678C327.255 116.591 321.741 117.547 315.777 117.547ZM286.069 66.5684H346.159C345.709 60.8291 344.078 55.7649 341.264 51.376C338.451 46.987 334.85 43.5547 330.462 41.0789C326.073 38.6031 321.234 37.3652 315.946 37.3652C310.769 37.3652 305.987 38.6031 301.598 41.0789C297.21 43.5547 293.609 46.987 290.796 51.376C288.095 55.7649 286.519 60.8291 286.069 66.5684Z" fill="#463DA6"/>
<path d="M271.12 40.8989C263.693 41.0115 257.11 42.9245 251.371 46.6383C245.744 50.2393 241.75 55.2472 239.387 61.6618V109.93L224.646 118.845V33.6403L236.881 25.915L238.374 48.3262C241.412 42.2493 245.407 37.354 250.358 33.6403C255.422 29.8141 260.711 27.6759 266.225 27.2257C267.35 27.2257 268.306 27.2257 269.094 27.2257C269.882 27.2257 270.557 27.282 271.12 27.3946V40.8989Z" fill="#463DA6"/>
<path fill-rule="evenodd" clip-rule="evenodd" d="M111.146 11.4107L100.732 11.4106L100.043 26.3787L111.501 19.7656L111.146 11.4107ZM111.755 25.7551L99.7534 32.6823L96.1169 111.732L105.812 117.238L115.402 111.732L111.755 25.7551Z" fill="#463DA6"/>
</svg>
